<svg width="4000" height="2000" viewBox="0 0 4000 2000" fill="none" xmlns="http://www.w3.org/2000/svg">
<path d="M4000 0H0V2000H4000V0Z" fill="#EBADCC"/>
<path d="M1975 756.766C1974.95 751.361 1975.93 745.997 1977.89 740.959C1979.73 736.211 1982.49 731.869 1986 728.179C1989.53 724.511 1993.77 721.603 1998.47 719.633C2003.51 717.527 2008.92 716.472 2014.38 716.533C2018.44 716.482 2022.47 717.121 2026.31 718.423C2030.13 719.826 2033.65 721.929 2036.69 724.623V718.043H2056.3V795.487H2036.69V788.907C2033.65 791.602 2030.13 793.705 2026.31 795.107C2022.47 796.41 2018.44 797.051 2014.38 797C2008.92 797.061 2003.51 796.007 1998.47 793.9C1993.77 791.931 1989.53 789.023 1986 785.355C1982.49 781.664 1979.73 777.322 1977.89 772.573C1975.93 767.535 1974.95 762.17 1975 756.766ZM2016.93 778.925C2018.56 778.916 2020.19 778.752 2021.79 778.434C2023.56 778.082 2025.29 777.523 2026.93 776.77C2028.74 775.937 2030.43 774.882 2031.98 773.631C2033.74 772.211 2035.32 770.586 2036.69 768.791V744.741C2035.32 742.953 2033.74 741.34 2031.98 739.941C2030.42 738.707 2028.72 737.654 2026.92 736.802C2025.29 736.024 2023.56 735.453 2021.79 735.102C2020.19 734.784 2018.56 734.62 2016.93 734.61C2014 734.588 2011.1 735.153 2008.39 736.274C2005.8 737.345 2003.45 738.927 2001.48 740.925C1999.51 742.947 1997.95 745.337 1996.89 747.959C1994.68 753.624 1994.68 759.915 1996.89 765.58C1997.95 768.202 1999.51 770.591 2001.48 772.613C2003.45 774.612 2005.8 776.194 2008.39 777.265C2011.1 778.383 2014 778.948 2016.93 778.925ZM2105.33 735.65C2096.04 735.716 2087.97 742.059 2087.97 751.473V795.488H2068.35V752C2068.46 733.866 2084.5 716.774 2105.05 716.53H2105.6C2126.15 716.774 2142.19 733.866 2142.3 752V795.486H2122.68V751.473C2122.68 742.059 2114.61 735.716 2105.32 735.65H2105.33ZM2151.58 756.766C2151.54 751.361 2152.52 745.997 2154.48 740.959C2156.32 736.211 2159.07 731.869 2162.58 728.179C2166.11 724.513 2170.36 721.605 2175.05 719.633C2180.09 717.527 2185.5 716.472 2190.96 716.533C2195.03 716.483 2199.08 717.122 2202.93 718.423C2206.73 719.802 2210.24 721.88 2213.28 724.55V694.827H2232.89V795.488H2213.28V788.988C2210.26 791.694 2206.75 793.787 2202.93 795.151C2199.07 796.426 2195.02 797.051 2190.96 797C2185.5 797.061 2180.09 796.007 2175.05 793.9C2170.36 791.928 2166.11 789.021 2162.58 785.355C2159.07 781.664 2156.32 777.322 2154.48 772.573C2152.52 767.535 2151.54 762.171 2151.58 756.766ZM2193.51 778.925C2195.14 778.916 2196.77 778.752 2198.37 778.434C2200.14 778.082 2201.87 777.523 2203.51 776.77C2205.32 775.934 2207.02 774.88 2208.57 773.631C2210.32 772.205 2211.9 770.581 2213.28 768.791V744.741C2211.91 742.957 2210.33 741.346 2208.57 739.941C2207.01 738.709 2205.31 737.657 2203.51 736.802C2201.87 736.025 2200.15 735.454 2198.37 735.102C2196.77 734.784 2195.14 734.62 2193.51 734.61C2190.58 734.588 2187.68 735.153 2184.98 736.274C2182.39 737.34 2180.03 738.923 2178.07 740.925C2176.09 742.947 2174.53 745.336 2173.47 747.959C2171.26 753.624 2171.26 759.915 2173.47 765.58C2174.53 768.202 2176.09 770.592 2178.07 772.613C2180.03 774.616 2182.39 776.199 2184.98 777.265C2187.68 778.383 2190.58 778.948 2193.51 778.925ZM2324.73 778.925C2327.58 778.942 2330.4 778.39 2333.03 777.299C2335.58 776.246 2337.89 774.69 2339.83 772.724C2341.79 770.712 2343.34 768.333 2344.38 765.724C2345.52 762.875 2346.08 759.829 2346.04 756.762C2346.08 753.717 2345.5 750.695 2344.35 747.876C2343.27 745.264 2341.7 742.886 2339.71 740.876C2337.76 738.916 2335.46 737.35 2332.92 736.263C2330.33 735.152 2327.55 734.586 2324.73 734.599C2321.92 734.586 2319.14 735.134 2316.55 736.212C2313.96 737.29 2311.61 738.876 2309.64 740.876C2307.68 742.896 2306.12 745.272 2305.04 747.876C2303.88 750.695 2303.31 753.717 2303.34 756.763C2303.3 759.83 2303.87 762.874 2305 765.724C2306.05 768.332 2307.6 770.71 2309.56 772.724C2311.49 774.69 2313.8 776.246 2316.35 777.299C2319.01 778.394 2321.86 778.946 2324.73 778.925ZM2324.73 797C2319.21 797.035 2313.73 796.008 2308.59 793.975C2303.68 792.039 2299.18 789.176 2295.35 785.542C2291.55 781.915 2288.51 777.572 2286.4 772.762C2284.18 767.722 2283.06 762.268 2283.11 756.762C2283.07 751.344 2284.2 745.981 2286.4 741.032C2288.52 736.237 2291.54 731.897 2295.31 728.251C2303.22 720.688 2313.74 716.467 2324.69 716.467C2335.63 716.467 2346.16 720.688 2354.07 728.251C2357.84 731.897 2360.87 736.237 2362.99 741.032C2365.19 745.982 2366.31 751.345 2366.27 756.762C2366.32 762.267 2365.2 767.721 2362.99 772.762C2360.88 777.572 2357.84 781.915 2354.04 785.542C2350.22 789.171 2345.73 792.034 2340.83 793.975C2335.71 796.012 2330.24 797.039 2324.73 797ZM2384.87 711.981C2383.32 711.989 2381.78 711.678 2380.36 711.068C2378.98 710.481 2377.71 709.64 2376.64 708.588C2375.57 707.544 2374.71 706.305 2374.11 704.94C2373.49 703.545 2373.17 702.035 2373.17 700.508C2373.17 698.982 2373.49 697.472 2374.11 696.077C2374.7 694.696 2375.56 693.444 2376.64 692.393C2377.71 691.341 2378.98 690.5 2380.36 689.912C2381.79 689.302 2383.32 688.992 2384.87 689C2386.43 688.994 2387.97 689.304 2389.41 689.912C2390.81 690.492 2392.09 691.334 2393.17 692.393C2394.25 693.446 2395.11 694.697 2395.71 696.077C2396.33 697.479 2396.65 698.995 2396.64 700.527C2396.65 702.048 2396.33 703.552 2395.71 704.941C2394.47 707.714 2392.22 709.907 2389.41 711.068C2387.97 711.676 2386.43 711.987 2384.87 711.981ZM2375.06 718.044H2394.67V795.488H2375.06V718.044ZM2403.69 756.766C2403.65 751.361 2404.63 745.997 2406.59 740.959C2408.43 736.211 2411.18 731.869 2414.69 728.179C2418.22 724.513 2422.47 721.606 2427.16 719.633C2432.2 717.527 2437.61 716.472 2443.07 716.533C2447.14 716.483 2451.19 717.122 2455.04 718.423C2458.84 719.802 2462.35 721.88 2465.39 724.55V694.827H2485V795.488H2465.39V788.988C2462.37 791.694 2458.86 793.787 2455.04 795.151C2451.18 796.426 2447.13 797.05 2443.07 797C2437.61 797.061 2432.2 796.007 2427.16 793.9C2422.47 791.928 2418.22 789.021 2414.69 785.355C2411.18 781.664 2408.43 777.322 2406.59 772.573C2404.63 767.535 2403.65 762.171 2403.69 756.766ZM2445.62 778.925C2447.25 778.916 2448.88 778.752 2450.48 778.434C2452.25 778.082 2453.98 777.523 2455.62 776.77C2457.43 775.937 2459.12 774.882 2460.67 773.631C2462.43 772.208 2464.01 770.584 2465.39 768.791V744.741C2464.02 742.955 2462.43 741.343 2460.67 739.941C2459.11 738.707 2457.42 737.654 2455.62 736.802C2453.98 736.025 2452.26 735.454 2450.48 735.102C2448.88 734.784 2447.25 734.62 2445.62 734.61C2442.69 734.588 2439.79 735.153 2437.09 736.274C2434.5 737.34 2432.14 738.923 2430.18 740.925C2428.2 742.947 2426.64 745.336 2425.58 747.959C2423.37 753.624 2423.37 759.915 2425.58 765.58C2426.64 768.202 2428.2 770.592 2430.18 772.613C2432.15 774.614 2434.5 776.196 2437.09 777.265C2439.79 778.383 2442.69 778.948 2445.62 778.925ZM2281.25 735.417C2268.1 735.417 2262.31 742.059 2262.31 751.473V795.488H2242.69V752C2242.8 733.866 2253.5 716.039 2281.25 716.039" fill="white"/>
<path d="M1986.96 1066.62L2014.79 1053.43H2016.26V1088.59C2016.26 1095.33 2022.17 1101.04 2033.98 1105.73C2042.19 1108.95 2050.93 1110.56 2060.2 1110.56C2068.5 1110.56 2076.76 1108.95 2084.96 1105.73C2096.78 1101.04 2102.68 1095.33 2102.68 1088.59V939.469H2018.75V938.004L2030.61 912.809H2131.98V1088.59C2131.98 1106.46 2120.9 1119.99 2098.73 1129.17C2086.33 1134.34 2073.48 1136.93 2060.2 1136.93C2045.94 1136.93 2032.61 1134.34 2020.21 1129.17C1998.04 1119.99 1986.96 1106.46 1986.96 1088.59V1066.62ZM2212.55 1095.91C2212.55 1100.8 2215.57 1104.46 2221.63 1106.9C2227.78 1109.34 2235.25 1110.56 2244.04 1110.56C2252.83 1110.56 2260.25 1109.34 2266.31 1106.9C2272.46 1104.46 2275.53 1100.8 2275.53 1095.91V1010.95C2275.53 1006.07 2272.46 1002.41 2266.31 999.967C2260.25 997.525 2252.83 996.305 2244.04 996.305C2235.25 996.305 2227.78 997.525 2221.63 999.967C2215.57 1002.41 2212.55 1006.07 2212.55 1010.95V1095.91ZM2183.25 1101.04V1005.83C2183.25 992.936 2192.38 982.877 2210.64 975.65C2220.51 971.842 2231.64 969.938 2244.04 969.938C2256.44 969.938 2267.58 971.842 2277.44 975.65C2295.7 982.877 2304.83 992.936 2304.83 1005.83V1101.04C2304.83 1113.93 2295.7 1123.99 2277.44 1131.22C2267.58 1135.03 2256.44 1136.93 2244.04 1136.93C2231.64 1136.93 2220.51 1135.03 2210.64 1131.22C2192.38 1123.99 2183.25 1113.93 2183.25 1101.04ZM2356.1 1139.86V920.133L2383.93 906.949H2385.4V1126.68L2357.57 1139.86H2356.1ZM2443.99 1139.86V920.133L2471.82 906.949H2473.29V1126.68L2445.46 1139.86H2443.99ZM2534.08 940.494C2530.66 936.979 2528.95 932.779 2528.95 927.896C2528.95 922.916 2530.66 918.668 2534.08 915.152C2537.5 911.637 2541.65 909.879 2546.53 909.879C2551.41 909.879 2555.56 911.637 2558.98 915.152C2562.4 918.668 2564.11 922.916 2564.11 927.896C2564.11 932.779 2562.4 936.979 2558.98 940.494C2555.56 944.01 2551.41 945.768 2546.53 945.768C2541.65 945.768 2537.5 944.01 2534.08 940.494ZM2531.88 1139.86V980.191L2559.71 967.008H2561.18V1126.68L2533.35 1139.86H2531.88ZM2619.77 1139.86V1014.18H2597.8V1012.71L2609.67 987.516H2619.77V945.768C2619.77 932.682 2628.9 922.623 2647.17 915.592C2657.03 911.783 2668.16 909.879 2680.56 909.879H2700.34V911.344L2688.62 936.246H2680.56C2671.78 936.246 2664.3 937.467 2658.15 939.908C2652.1 942.35 2649.07 946.012 2649.07 950.895V987.516H2697.56V988.98L2685.69 1014.18H2649.07V1126.68L2621.24 1139.86H2619.77ZM2736.96 980.191L2764.79 967.008H2766.26V1095.91C2766.26 1100.8 2769.28 1104.46 2775.34 1106.9C2781.49 1109.34 2788.96 1110.56 2797.75 1110.56C2806.54 1110.56 2813.96 1109.34 2820.02 1106.9C2826.17 1104.46 2829.25 1100.8 2829.25 1095.91V980.191L2857.08 967.008H2858.54V1161.1C2858.54 1174.19 2849.41 1184.24 2831.15 1191.28C2821.29 1195.08 2810.15 1196.99 2797.75 1196.99H2752.19V1195.52L2763.91 1170.62H2797.75C2806.54 1170.62 2813.96 1169.4 2820.02 1166.96C2826.17 1164.52 2829.25 1160.86 2829.25 1155.97V1131.95C2819.87 1135.27 2809.37 1136.93 2797.75 1136.93C2785.35 1136.93 2774.22 1135.03 2764.35 1131.22C2746.09 1124.19 2736.96 1114.13 2736.96 1101.04V980.191Z" fill="white"/>
<path d="M2118.91 561.29C2112.19 549.667 2102.52 540.018 2090.89 533.311C2079.13 526.555 2065.8 523 2052.24 523C2038.68 523 2025.35 526.555 2013.59 533.311C2001.96 540.018 1992.29 549.667 1985.57 561.29C1979.85 571.179 1976.4 582.217 1975.48 593.603C1974.55 604.99 1976.18 616.439 1980.23 627.12C1984.28 637.802 1990.66 647.448 1998.9 655.358C2007.14 663.268 2017.04 669.244 2027.88 672.853C2029.68 673.187 2031.02 672.953 2031.89 672.153C2032.31 671.775 2032.64 671.312 2032.87 670.794C2033.09 670.277 2033.2 669.717 2033.19 669.153C2033.19 668.953 2033.17 667.153 2033.14 663.747C2033.11 660.341 2033.09 657.373 2033.09 654.84L2030.78 655.24C2028.94 655.533 2027.08 655.65 2025.22 655.59C2022.88 655.549 2020.55 655.315 2018.25 654.89C2015.8 654.441 2013.5 653.413 2011.53 651.89C2009.47 650.333 2007.93 648.186 2007.12 645.734L2006.12 643.434C2005.28 641.611 2004.21 639.897 2002.96 638.329C2001.83 636.729 2000.34 635.425 1998.6 634.529L1997.9 634.029C1997.42 633.681 1996.98 633.278 1996.59 632.829C1996.22 632.411 1995.92 631.939 1995.69 631.429C1995.49 630.961 1995.66 630.577 1996.19 630.276C1997.11 629.908 1998.11 629.755 1999.1 629.829L2001.11 630.129C2002.9 630.608 2004.58 631.422 2006.07 632.529C2008.06 633.88 2009.72 635.656 2010.93 637.729C2012.26 640.232 2014.17 642.378 2016.5 643.986C2018.42 645.341 2020.71 646.09 2023.06 646.137C2024.98 646.162 2026.89 645.995 2028.78 645.637C2030.34 645.317 2031.85 644.814 2033.29 644.137C2033.89 639.664 2035.53 636.227 2038.2 633.826C2034.73 633.487 2031.3 632.885 2027.92 632.026C2024.63 631.122 2021.46 629.81 2018.5 628.121C2015.4 626.434 2012.66 624.156 2010.43 621.415C2008.05 618.264 2006.26 614.701 2005.17 610.904C2003.72 606.033 2003.03 600.969 2003.11 595.888C2002.94 588.242 2005.79 580.836 2011.03 575.266C2008.56 569.194 2008.79 562.387 2011.73 554.846C2013.67 554.246 2016.55 554.696 2020.36 556.197C2023.24 557.266 2026.04 558.555 2028.73 560.052C2030.5 561.119 2031.92 562.019 2032.99 562.752C2045.59 559.283 2058.89 559.283 2071.49 562.752L2075.3 560.352C2078.23 558.596 2081.31 557.12 2084.52 555.946C2088.06 554.613 2090.77 554.246 2092.65 554.846C2095.65 562.387 2095.92 569.194 2093.45 575.266C2098.69 580.836 2101.54 588.242 2101.37 595.888C2101.45 600.985 2100.75 606.064 2099.31 610.953C2098.23 614.764 2096.43 618.332 2094 621.464C2091.74 624.176 2088.98 626.434 2085.88 628.121C2082.91 629.808 2079.74 631.119 2076.45 632.021C2073.08 632.881 2069.64 633.483 2066.18 633.821C2069.65 636.821 2071.39 641.559 2071.39 648.035V669.155C2071.38 669.715 2071.48 670.271 2071.7 670.788C2071.91 671.304 2072.23 671.77 2072.64 672.155C2073.48 672.955 2074.8 673.188 2076.6 672.855C2087.44 669.242 2097.33 663.264 2105.57 655.354C2113.81 647.443 2120.19 637.799 2124.24 627.119C2128.29 616.439 2129.91 604.992 2128.99 593.607C2128.07 582.223 2124.62 571.185 2118.91 561.296V561.29Z" fill="white"/>
<path d="M955 1600C1286.37 1600 1555 1331.37 1555 1000C1555 668.629 1286.37 400 955 400C623.629 400 355 668.629 355 1000C355 1331.37 623.629 1600 955 1600Z" fill="white"/>
<path d="M955 1599.5C1286.09 1599.5 1554.5 1331.09 1554.5 1000C1554.5 668.905 1286.09 400.5 955 400.5C623.905 400.5 355.5 668.905 355.5 1000C355.5 1331.09 623.905 1599.5 955 1599.5Z" stroke="#707070"/>
<g clip-path="url(#clip0)">
<path d="M1181 1045.27V822.734C1198.23 818.282 1211 802.604 1211 784C1211 761.944 1193.06 744 1171 744C1152.4 744 1136.72 756.767 1132.27 774H909.735C905.282 756.767 889.604 744 871 744C848.944 744 831 761.944 831 784C831 802.604 843.768 818.282 861 822.734V1045.27C843.768 1049.72 831 1065.4 831 1084C831 1106.06 848.944 1124 871 1124C889.604 1124 905.282 1111.23 909.734 1094H976C981.522 1094 986 1089.52 986 1084C986 1078.48 981.522 1074 976 1074H909.734C906.108 1059.97 895.035 1048.89 881 1045.27V822.734C895.035 819.108 906.108 808.035 909.734 794H1132.27C1135.89 808.035 1146.96 819.108 1161 822.734V1045.27C1146.96 1048.89 1135.89 1059.97 1132.27 1074H1066C1060.48 1074 1056 1078.48 1056 1084C1056 1089.52 1060.48 1094 1066 1094H1132.27C1136.72 1111.23 1152.4 1124 1171 1124C1193.06 1124 1211 1106.06 1211 1084C1211 1065.4 1198.23 1049.72 1181 1045.27ZM891 1084C891 1095.03 882.028 1104 871 1104C859.972 1104 851 1095.03 851 1084C851 1072.97 859.972 1064 871 1064C882.028 1064 891 1072.97 891 1084ZM871 804C859.972 804 851 795.028 851 784C851 772.972 859.972 764 871 764C882.028 764 891 772.972 891 784C891 795.028 882.029 804 871 804ZM1151 784C1151 772.972 1159.97 764 1171 764C1182.03 764 1191 772.972 1191 784C1191 795.028 1182.03 804 1171 804C1159.97 804 1151 795.028 1151 784ZM1171 1104C1159.97 1104 1151 1095.03 1151 1084C1151 1072.97 1159.97 1064 1171 1064C1182.03 1064 1191 1072.97 1191 1084C1191 1095.03 1182.03 1104 1171 1104Z" fill="#EBADCC"/>
<path d="M1021 1094C1026.52 1094 1031 1089.52 1031 1084C1031 1078.48 1026.52 1074 1021 1074C1015.48 1074 1011 1078.48 1011 1084C1011 1089.52 1015.48 1094 1021 1094Z" fill="#EBADCC"/>
<path d="M1021 954C1032.05 954 1041 945.046 1041 934C1041 922.954 1032.05 914 1021 914C1009.95 914 1001 922.954 1001 934C1001 945.046 1009.95 954 1021 954Z" fill="#EBADCC"/>
<path d="M788.929 1151.93L701.929 1238.93C698.024 1242.83 698.024 1249.17 701.929 1253.07C703.882 1255.02 706.441 1256 709 1256C711.559 1256 714.118 1255.02 716.071 1253.07L803.071 1166.07C806.976 1162.17 806.976 1155.83 803.071 1151.93C799.165 1148.03 792.835 1148.03 788.929 1151.93Z" fill="#EBADCC"/>
<path d="M908.929 1151.93L821.929 1238.93C818.024 1242.83 818.024 1249.17 821.929 1253.07C823.882 1255.02 826.441 1256 829 1256C831.559 1256 834.118 1255.02 836.071 1253.07L923.071 1166.07C926.976 1162.17 926.976 1155.83 923.071 1151.93C919.165 1148.02 912.835 1148.02 908.929 1151.93Z" fill="#EBADCC"/>
<path d="M788.929 1031.93L701.929 1118.93C698.024 1122.83 698.024 1129.17 701.929 1133.07C703.882 1135.02 706.441 1136 709 1136C711.559 1136 714.118 1135.02 716.071 1133.07L803.071 1046.07C806.976 1042.17 806.976 1035.83 803.071 1031.93C799.165 1028.03 792.835 1028.03 788.929 1031.93Z" fill="#EBADCC"/>
</g>
<path d="M2002.55 1277.03L2026.92 1330H2018.05L2010.16 1312.73H1987.94L1979.77 1330H1975.4L2000.36 1277.03H2002.55ZM1989.46 1309.38H2008.56L1999.15 1288.87L1989.46 1309.38ZM2039.85 1289.26H2042.12V1297.34C2044.54 1294.64 2047.05 1292.62 2049.66 1291.29C2052.26 1289.93 2054.9 1289.26 2057.59 1289.26C2058.99 1289.26 2060.29 1289.57 2061.49 1290.2C2062.72 1290.82 2063.78 1291.68 2064.69 1292.77C2065.61 1293.87 2066.32 1295.16 2066.84 1296.64C2067.36 1298.1 2067.62 1299.66 2067.62 1301.33V1330H2059.69V1302.7C2059.69 1301.37 2059.54 1300.21 2059.23 1299.22C2058.91 1298.2 2058.47 1297.36 2057.9 1296.68C2057.33 1296 2056.65 1295.49 2055.87 1295.16C2055.11 1294.79 2054.27 1294.61 2053.33 1294.61C2052.49 1294.61 2051.61 1294.75 2050.67 1295.04C2049.73 1295.33 2048.77 1295.73 2047.78 1296.25C2046.82 1296.74 2045.85 1297.34 2044.89 1298.05C2043.93 1298.75 2043 1299.53 2042.12 1300.39V1330H2034.15V1291.48L2039.85 1289.26ZM2123.02 1330C2121.97 1329.48 2121.09 1328.75 2120.36 1327.81C2119.66 1326.85 2119.3 1325.76 2119.3 1324.53C2118.37 1325.23 2117.44 1325.96 2116.53 1326.72C2115.65 1327.47 2114.67 1328.16 2113.6 1328.79C2112.56 1329.39 2111.39 1329.88 2110.09 1330.27C2108.81 1330.66 2107.33 1330.86 2105.63 1330.86C2104.07 1330.86 2102.65 1330.6 2101.37 1330.08C2100.12 1329.58 2099.06 1328.89 2098.17 1328.01C2097.31 1327.12 2096.64 1326.07 2096.14 1324.84C2095.67 1323.62 2095.44 1322.3 2095.44 1320.9C2095.44 1319.18 2095.78 1317.63 2096.45 1316.25C2097.13 1314.87 2098.05 1313.65 2099.23 1312.58C2100.42 1311.48 2101.8 1310.52 2103.37 1309.69C2104.93 1308.83 2106.6 1308.07 2108.37 1307.42C2110.14 1306.74 2111.96 1306.15 2113.84 1305.62C2115.71 1305.1 2117.53 1304.62 2119.3 1304.18V1301.68C2119.3 1299.86 2119.17 1298.32 2118.91 1297.07C2118.65 1295.82 2118.25 1294.82 2117.7 1294.06C2117.16 1293.28 2116.45 1292.73 2115.59 1292.42C2114.76 1292.08 2113.76 1291.91 2112.59 1291.91C2111.47 1291.91 2110.44 1292.14 2109.5 1292.58C2108.56 1293.02 2107.73 1293.62 2107 1294.38C2106.3 1295.1 2105.71 1295.98 2105.24 1296.99C2104.8 1297.98 2104.5 1299.04 2104.34 1300.16H2097.08C2097.29 1298.44 2097.87 1296.9 2098.84 1295.55C2099.83 1294.19 2101.06 1293.06 2102.55 1292.15C2104.03 1291.21 2105.71 1290.49 2107.59 1290C2109.49 1289.51 2111.45 1289.26 2113.48 1289.26C2116.09 1289.26 2118.28 1289.52 2120.05 1290.04C2121.82 1290.53 2123.24 1291.24 2124.3 1292.15C2125.37 1293.06 2126.13 1294.18 2126.57 1295.51C2127.04 1296.81 2127.27 1298.26 2127.27 1299.84V1324.53C2127.27 1325.76 2127.62 1326.85 2128.33 1327.81C2129.06 1328.75 2129.94 1329.48 2130.98 1330H2123.02ZM2119.3 1306.72C2118.16 1307.08 2116.97 1307.5 2115.75 1307.97C2114.53 1308.44 2113.33 1308.97 2112.16 1309.57C2110.98 1310.14 2109.86 1310.77 2108.8 1311.45C2107.73 1312.12 2106.79 1312.85 2105.98 1313.63C2105.18 1314.41 2104.54 1315.23 2104.07 1316.09C2103.6 1316.95 2103.37 1317.85 2103.37 1318.79C2103.37 1319.78 2103.55 1320.72 2103.91 1321.6C2104.28 1322.46 2104.76 1323.23 2105.36 1323.91C2105.96 1324.56 2106.65 1325.08 2107.43 1325.47C2108.21 1325.83 2109.02 1326.02 2109.85 1326.02C2110.74 1326.02 2111.58 1325.9 2112.39 1325.66C2113.2 1325.43 2113.98 1325.12 2114.73 1324.73C2115.49 1324.31 2116.24 1323.84 2117 1323.32C2117.75 1322.8 2118.52 1322.24 2119.3 1321.64V1306.72ZM2145.87 1289.26H2148.13V1297.34C2150.55 1294.64 2153.07 1292.62 2155.67 1291.29C2158.28 1289.93 2160.92 1289.26 2163.6 1289.26C2165.01 1289.26 2166.31 1289.57 2167.51 1290.2C2168.73 1290.82 2169.8 1291.68 2170.71 1292.77C2171.62 1293.87 2172.34 1295.16 2172.86 1296.64C2173.38 1298.1 2173.64 1299.66 2173.64 1301.33V1330H2165.71V1302.7C2165.71 1301.37 2165.55 1300.21 2165.24 1299.22C2164.93 1298.2 2164.49 1297.36 2163.91 1296.68C2163.34 1296 2162.66 1295.49 2161.88 1295.16C2161.13 1294.79 2160.28 1294.61 2159.34 1294.61C2158.51 1294.61 2157.62 1294.75 2156.69 1295.04C2155.75 1295.33 2154.79 1295.73 2153.8 1296.25C2152.83 1296.74 2151.87 1297.34 2150.91 1298.05C2149.94 1298.75 2149.02 1299.53 2148.13 1300.39V1330H2140.16V1291.48L2145.87 1289.26ZM2215.16 1326.13C2214.25 1326.86 2213.26 1327.53 2212.19 1328.12C2211.13 1328.7 2210.01 1329.19 2208.84 1329.61C2207.69 1330 2206.53 1330.3 2205.36 1330.51C2204.19 1330.74 2203.04 1330.86 2201.92 1330.86C2199.58 1330.86 2197.38 1330.31 2195.32 1329.22C2193.29 1328.12 2191.5 1326.65 2189.97 1324.8C2188.46 1322.96 2187.26 1320.81 2186.37 1318.36C2185.49 1315.89 2185.05 1313.28 2185.05 1310.55C2185.05 1307.84 2185.59 1305.21 2186.69 1302.66C2187.81 1300.1 2189.32 1297.84 2191.22 1295.86C2193.12 1293.85 2195.33 1292.25 2197.86 1291.05C2200.41 1289.86 2203.13 1289.26 2206.02 1289.26C2207.98 1289.26 2209.67 1289.6 2211.1 1290.27C2212.56 1290.95 2213.91 1291.85 2215.16 1292.97V1271.88L2220.75 1269.61H2223.05V1330H2215.16V1326.13ZM2215.16 1302.73C2215.16 1301.17 2214.86 1299.75 2214.27 1298.48C2213.69 1297.17 2212.94 1296.07 2212 1295.16C2211.06 1294.22 2209.99 1293.5 2208.8 1293.01C2207.62 1292.49 2206.44 1292.23 2205.24 1292.23C2203.65 1292.23 2202.17 1292.62 2200.79 1293.4C2199.41 1294.18 2198.2 1295.29 2197.16 1296.72C2196.14 1298.12 2195.33 1299.82 2194.73 1301.8C2194.14 1303.75 2193.84 1305.91 2193.84 1308.28C2193.84 1310.83 2194.16 1313.22 2194.81 1315.43C2195.46 1317.64 2196.35 1319.58 2197.47 1321.25C2198.61 1322.89 2199.94 1324.19 2201.45 1325.16C2202.99 1326.09 2204.63 1326.56 2206.37 1326.56C2207.21 1326.56 2208.04 1326.46 2208.87 1326.25C2209.73 1326.02 2210.54 1325.72 2211.3 1325.35C2212.05 1324.96 2212.75 1324.52 2213.41 1324.02C2214.08 1323.53 2214.67 1323.01 2215.16 1322.46V1302.73ZM2242.7 1289.26H2243.91L2244.97 1297.42C2245.59 1296.22 2246.37 1295.13 2247.31 1294.14C2248.25 1293.15 2249.28 1292.29 2250.4 1291.56C2251.54 1290.83 2252.74 1290.27 2253.99 1289.88C2255.27 1289.47 2256.56 1289.26 2257.86 1289.26C2259.03 1289.26 2260.18 1289.41 2261.3 1289.73C2262.44 1290.04 2263.51 1290.53 2264.5 1291.21L2262 1297.89C2261.48 1297.32 2260.93 1296.86 2260.36 1296.52C2259.79 1296.16 2259.2 1295.89 2258.6 1295.7C2258 1295.49 2257.39 1295.36 2256.77 1295.31C2256.14 1295.26 2255.52 1295.23 2254.89 1295.23C2253.9 1295.23 2252.92 1295.38 2251.96 1295.66C2251.02 1295.95 2250.12 1296.38 2249.27 1296.95C2248.41 1297.5 2247.61 1298.22 2246.88 1299.1C2246.15 1299.96 2245.52 1300.98 2244.97 1302.15V1330H2237.04V1291.45L2242.7 1289.26ZM2288.91 1330.86C2285.84 1330.86 2283.02 1330.33 2280.44 1329.26C2277.86 1328.19 2275.63 1326.74 2273.76 1324.92C2271.88 1323.07 2270.41 1320.92 2269.34 1318.48C2268.3 1316 2267.78 1313.36 2267.78 1310.55C2267.78 1307.6 2268.3 1304.84 2269.34 1302.27C2270.41 1299.66 2271.88 1297.4 2273.76 1295.47C2275.63 1293.54 2277.86 1292.03 2280.44 1290.94C2283.02 1289.82 2285.84 1289.26 2288.91 1289.26C2291.96 1289.26 2294.76 1289.77 2297.31 1290.78C2299.89 1291.8 2302.12 1293.19 2303.99 1294.96C2305.87 1296.73 2307.33 1298.82 2308.37 1301.21C2309.43 1303.58 2309.97 1306.13 2309.97 1308.87C2309.97 1311.89 2309.43 1314.74 2308.37 1317.42C2307.33 1320.08 2305.87 1322.41 2303.99 1324.41C2302.12 1326.39 2299.89 1327.97 2297.31 1329.14C2294.76 1330.29 2291.96 1330.86 2288.91 1330.86ZM2290.44 1327.93C2292 1327.93 2293.43 1327.53 2294.73 1326.72C2296.04 1325.91 2297.16 1324.83 2298.09 1323.48C2299.03 1322.1 2299.76 1320.51 2300.28 1318.71C2300.8 1316.91 2301.06 1315.01 2301.06 1313.01C2301.06 1310.12 2300.81 1307.41 2300.32 1304.88C2299.83 1302.36 2299.02 1300.16 2297.9 1298.28C2296.78 1296.41 2295.32 1294.93 2293.52 1293.87C2291.73 1292.77 2289.54 1292.23 2286.96 1292.23C2285.63 1292.23 2284.34 1292.62 2283.09 1293.4C2281.84 1294.15 2280.74 1295.2 2279.77 1296.52C2278.84 1297.85 2278.08 1299.41 2277.51 1301.21C2276.93 1302.98 2276.65 1304.87 2276.65 1306.88C2276.65 1309.79 2276.95 1312.53 2277.55 1315.08C2278.17 1317.63 2279.07 1319.86 2280.24 1321.76C2281.44 1323.66 2282.89 1325.17 2284.58 1326.29C2286.3 1327.38 2288.25 1327.93 2290.44 1327.93ZM2321.88 1291.52L2327.47 1289.26H2329.77V1330H2321.88V1291.52ZM2321.26 1274.69C2321.26 1274.06 2321.37 1273.48 2321.61 1272.93C2321.84 1272.38 2322.17 1271.9 2322.59 1271.48C2323 1271.07 2323.48 1270.74 2324.03 1270.51C2324.58 1270.27 2325.16 1270.16 2325.79 1270.16C2326.41 1270.16 2327 1270.27 2327.55 1270.51C2328.09 1270.74 2328.58 1271.07 2328.99 1271.48C2329.41 1271.9 2329.73 1272.38 2329.97 1272.93C2330.2 1273.48 2330.32 1274.06 2330.32 1274.69C2330.32 1275.31 2330.2 1275.9 2329.97 1276.45C2329.73 1276.99 2329.41 1277.47 2328.99 1277.89C2328.58 1278.31 2328.09 1278.63 2327.55 1278.87C2327 1279.1 2326.41 1279.22 2325.79 1279.22C2325.16 1279.22 2324.58 1279.1 2324.03 1278.87C2323.48 1278.63 2323 1278.31 2322.59 1277.89C2322.17 1277.47 2321.84 1276.99 2321.61 1276.45C2321.37 1275.9 2321.26 1275.31 2321.26 1274.69ZM2371.8 1326.13C2370.89 1326.86 2369.9 1327.53 2368.84 1328.12C2367.77 1328.7 2366.65 1329.19 2365.48 1329.61C2364.33 1330 2363.17 1330.3 2362 1330.51C2360.83 1330.74 2359.68 1330.86 2358.56 1330.86C2356.22 1330.86 2354.02 1330.31 2351.96 1329.22C2349.93 1328.12 2348.15 1326.65 2346.61 1324.8C2345.1 1322.96 2343.9 1320.81 2343.02 1318.36C2342.13 1315.89 2341.69 1313.28 2341.69 1310.55C2341.69 1307.84 2342.23 1305.21 2343.33 1302.66C2344.45 1300.1 2345.96 1297.84 2347.86 1295.86C2349.76 1293.85 2351.97 1292.25 2354.5 1291.05C2357.05 1289.86 2359.77 1289.26 2362.66 1289.26C2364.62 1289.26 2366.31 1289.6 2367.74 1290.27C2369.2 1290.95 2370.55 1291.85 2371.8 1292.97V1271.88L2377.39 1269.61H2379.69V1330H2371.8V1326.13ZM2371.8 1302.73C2371.8 1301.17 2371.5 1299.75 2370.91 1298.48C2370.33 1297.17 2369.58 1296.07 2368.64 1295.16C2367.7 1294.22 2366.64 1293.5 2365.44 1293.01C2364.27 1292.49 2363.08 1292.23 2361.88 1292.23C2360.29 1292.23 2358.81 1292.62 2357.43 1293.4C2356.05 1294.18 2354.84 1295.29 2353.8 1296.72C2352.78 1298.12 2351.97 1299.82 2351.37 1301.8C2350.78 1303.75 2350.48 1305.91 2350.48 1308.28C2350.48 1310.83 2350.8 1313.22 2351.45 1315.43C2352.1 1317.64 2352.99 1319.58 2354.11 1321.25C2355.25 1322.89 2356.58 1324.19 2358.09 1325.16C2359.63 1326.09 2361.27 1326.56 2363.02 1326.56C2363.85 1326.56 2364.68 1326.46 2365.52 1326.25C2366.37 1326.02 2367.18 1325.72 2367.94 1325.35C2368.69 1324.96 2369.4 1324.52 2370.05 1324.02C2370.72 1323.53 2371.31 1323.01 2371.8 1322.46V1302.73ZM2418.05 1330H2410.09V1271.88L2415.75 1269.61H2418.05V1330ZM2432.74 1291.52L2438.33 1289.26H2440.63V1330H2432.74V1291.52ZM2432.12 1274.69C2432.12 1274.06 2432.23 1273.48 2432.47 1272.93C2432.7 1272.38 2433.03 1271.9 2433.44 1271.48C2433.86 1271.07 2434.34 1270.74 2434.89 1270.51C2435.44 1270.27 2436.02 1270.16 2436.65 1270.16C2437.27 1270.16 2437.86 1270.27 2438.41 1270.51C2438.95 1270.74 2439.43 1271.07 2439.85 1271.48C2440.27 1271.9 2440.59 1272.38 2440.83 1272.93C2441.06 1273.48 2441.18 1274.06 2441.18 1274.69C2441.18 1275.31 2441.06 1275.9 2440.83 1276.45C2440.59 1276.99 2440.27 1277.47 2439.85 1277.89C2439.43 1278.31 2438.95 1278.63 2438.41 1278.87C2437.86 1279.1 2437.27 1279.22 2436.65 1279.22C2436.02 1279.22 2435.44 1279.1 2434.89 1278.87C2434.34 1278.63 2433.86 1278.31 2433.44 1277.89C2433.03 1277.47 2432.7 1276.99 2432.47 1276.45C2432.23 1275.9 2432.12 1275.31 2432.12 1274.69ZM2455.24 1271.84L2460.87 1269.61H2463.21V1297.54C2463.86 1296.42 2464.71 1295.35 2465.75 1294.34C2466.82 1293.32 2467.96 1292.45 2469.19 1291.72C2470.44 1290.96 2471.73 1290.36 2473.05 1289.92C2474.41 1289.48 2475.7 1289.26 2476.92 1289.26C2479.24 1289.26 2481.37 1289.73 2483.33 1290.66C2485.28 1291.6 2486.96 1292.88 2488.37 1294.49C2489.77 1296.11 2490.87 1297.99 2491.65 1300.16C2492.46 1302.29 2492.86 1304.58 2492.86 1307.03C2492.86 1310.34 2492.27 1313.44 2491.1 1316.33C2489.96 1319.22 2488.37 1321.74 2486.34 1323.91C2484.33 1326.04 2481.97 1327.73 2479.27 1328.98C2476.56 1330.23 2473.67 1330.86 2470.59 1330.86C2467.62 1330.86 2464.83 1330.47 2462.19 1329.69C2459.59 1328.91 2457.27 1327.72 2455.24 1326.13V1271.84ZM2463.21 1323.48C2463.71 1323.95 2464.24 1324.43 2464.81 1324.92C2465.41 1325.42 2466.08 1325.87 2466.8 1326.29C2467.53 1326.68 2468.34 1327.01 2469.23 1327.27C2470.14 1327.5 2471.15 1327.62 2472.27 1327.62C2474.12 1327.62 2475.8 1327.17 2477.31 1326.29C2478.82 1325.38 2480.11 1324.13 2481.18 1322.54C2482.27 1320.92 2483.11 1319.02 2483.68 1316.84C2484.28 1314.62 2484.58 1312.21 2484.58 1309.61C2484.58 1307.63 2484.27 1305.78 2483.64 1304.06C2483.04 1302.32 2482.21 1300.81 2481.14 1299.53C2480.1 1298.23 2478.86 1297.21 2477.43 1296.48C2476.02 1295.73 2474.51 1295.35 2472.9 1295.35C2471.99 1295.35 2471.05 1295.48 2470.09 1295.74C2469.15 1296 2468.25 1296.35 2467.39 1296.8C2466.53 1297.24 2465.74 1297.76 2465.01 1298.36C2464.28 1298.93 2463.68 1299.56 2463.21 1300.23V1323.48ZM2509.89 1289.26H2511.1L2512.16 1297.42C2512.78 1296.22 2513.56 1295.13 2514.5 1294.14C2515.44 1293.15 2516.47 1292.29 2517.59 1291.56C2518.73 1290.83 2519.93 1290.27 2521.18 1289.88C2522.46 1289.47 2523.74 1289.26 2525.05 1289.26C2526.22 1289.26 2527.36 1289.41 2528.48 1289.73C2529.63 1290.04 2530.7 1290.53 2531.69 1291.21L2529.19 1297.89C2528.67 1297.32 2528.12 1296.86 2527.55 1296.52C2526.97 1296.16 2526.39 1295.89 2525.79 1295.7C2525.19 1295.49 2524.58 1295.36 2523.95 1295.31C2523.33 1295.26 2522.7 1295.23 2522.08 1295.23C2521.09 1295.23 2520.11 1295.38 2519.15 1295.66C2518.21 1295.95 2517.31 1296.38 2516.45 1296.95C2515.59 1297.5 2514.8 1298.22 2514.07 1299.1C2513.34 1299.96 2512.7 1300.98 2512.16 1302.15V1330H2504.23V1291.45L2509.89 1289.26ZM2563.72 1330C2562.68 1329.48 2561.79 1328.75 2561.06 1327.81C2560.36 1326.85 2560.01 1325.76 2560.01 1324.53C2559.07 1325.23 2558.15 1325.96 2557.23 1326.72C2556.35 1327.47 2555.37 1328.16 2554.3 1328.79C2553.26 1329.39 2552.09 1329.88 2550.79 1330.27C2549.51 1330.66 2548.03 1330.86 2546.34 1330.86C2544.77 1330.86 2543.35 1330.6 2542.08 1330.08C2540.83 1329.58 2539.76 1328.89 2538.87 1328.01C2538.02 1327.12 2537.34 1326.07 2536.84 1324.84C2536.37 1323.62 2536.14 1322.3 2536.14 1320.9C2536.14 1319.18 2536.48 1317.63 2537.16 1316.25C2537.83 1314.87 2538.76 1313.65 2539.93 1312.58C2541.13 1311.48 2542.51 1310.52 2544.07 1309.69C2545.63 1308.83 2547.3 1308.07 2549.07 1307.42C2550.84 1306.74 2552.66 1306.15 2554.54 1305.62C2556.41 1305.1 2558.24 1304.62 2560.01 1304.18V1301.68C2560.01 1299.86 2559.88 1298.32 2559.62 1297.07C2559.36 1295.82 2558.95 1294.82 2558.41 1294.06C2557.86 1293.28 2557.16 1292.73 2556.3 1292.42C2555.46 1292.08 2554.46 1291.91 2553.29 1291.91C2552.17 1291.91 2551.14 1292.14 2550.2 1292.58C2549.27 1293.02 2548.43 1293.62 2547.7 1294.38C2547 1295.1 2546.41 1295.98 2545.94 1296.99C2545.5 1297.98 2545.2 1299.04 2545.05 1300.16H2537.78C2537.99 1298.44 2538.58 1296.9 2539.54 1295.55C2540.53 1294.19 2541.77 1293.06 2543.25 1292.15C2544.73 1291.21 2546.41 1290.49 2548.29 1290C2550.19 1289.51 2552.16 1289.26 2554.19 1289.26C2556.79 1289.26 2558.98 1289.52 2560.75 1290.04C2562.52 1290.53 2563.94 1291.24 2565.01 1292.15C2566.08 1293.06 2566.83 1294.18 2567.27 1295.51C2567.74 1296.81 2567.98 1298.26 2567.98 1299.84V1324.53C2567.98 1325.76 2568.33 1326.85 2569.03 1327.81C2569.76 1328.75 2570.65 1329.48 2571.69 1330H2563.72ZM2560.01 1306.72C2558.86 1307.08 2557.68 1307.5 2556.45 1307.97C2555.23 1308.44 2554.03 1308.97 2552.86 1309.57C2551.69 1310.14 2550.57 1310.77 2549.5 1311.45C2548.43 1312.12 2547.49 1312.85 2546.69 1313.63C2545.88 1314.41 2545.24 1315.23 2544.77 1316.09C2544.3 1316.95 2544.07 1317.85 2544.07 1318.79C2544.07 1319.78 2544.25 1320.72 2544.62 1321.6C2544.98 1322.46 2545.46 1323.23 2546.06 1323.91C2546.66 1324.56 2547.35 1325.08 2548.13 1325.47C2548.91 1325.83 2549.72 1326.02 2550.55 1326.02C2551.44 1326.02 2552.29 1325.9 2553.09 1325.66C2553.9 1325.43 2554.68 1325.12 2555.44 1324.73C2556.19 1324.31 2556.95 1323.84 2557.7 1323.32C2558.46 1322.8 2559.23 1322.24 2560.01 1321.64V1306.72ZM2586.53 1289.26H2587.74L2588.8 1297.42C2589.42 1296.22 2590.2 1295.13 2591.14 1294.14C2592.08 1293.15 2593.11 1292.29 2594.23 1291.56C2595.37 1290.83 2596.57 1290.27 2597.82 1289.88C2599.1 1289.47 2600.39 1289.26 2601.69 1289.26C2602.86 1289.26 2604 1289.41 2605.12 1289.73C2606.27 1290.04 2607.34 1290.53 2608.33 1291.21L2605.83 1297.89C2605.31 1297.32 2604.76 1296.86 2604.19 1296.52C2603.61 1296.16 2603.03 1295.89 2602.43 1295.7C2601.83 1295.49 2601.22 1295.36 2600.59 1295.31C2599.97 1295.26 2599.34 1295.23 2598.72 1295.23C2597.73 1295.23 2596.75 1295.38 2595.79 1295.66C2594.85 1295.95 2593.95 1296.38 2593.09 1296.95C2592.23 1297.5 2591.44 1298.22 2590.71 1299.1C2589.98 1299.96 2589.34 1300.98 2588.8 1302.15V1330H2580.87V1291.45L2586.53 1289.26ZM2614.46 1339.45C2614.77 1339.58 2615.11 1339.75 2615.48 1339.96C2615.87 1340.17 2616.28 1340.36 2616.73 1340.55C2617.19 1340.76 2617.7 1340.92 2618.25 1341.05C2618.8 1341.18 2619.41 1341.25 2620.09 1341.25C2620.92 1341.25 2621.7 1341.02 2622.43 1340.55C2623.16 1340.08 2623.82 1339.49 2624.42 1338.79C2625.02 1338.09 2625.55 1337.32 2626.02 1336.48C2626.49 1335.65 2626.88 1334.87 2627.19 1334.14L2629.89 1328.12L2609.46 1290H2618.48L2633.87 1318.91L2646.49 1290H2650.75L2630.32 1337.03C2629.46 1338.98 2628.47 1340.68 2627.35 1342.11C2626.26 1343.54 2625.09 1344.73 2623.84 1345.66C2622.59 1346.6 2621.3 1347.29 2619.97 1347.73C2618.64 1348.2 2617.35 1348.44 2616.1 1348.44C2615.16 1348.44 2614.25 1348.29 2613.37 1348.01C2612.48 1347.72 2611.74 1347.34 2611.14 1346.88L2614.46 1339.45ZM2677 1290L2689.66 1319.22L2702.19 1290L2714.81 1319.22L2725.98 1290H2729.81L2713.48 1330.43H2710.79L2699.62 1304.3L2688.41 1330.43H2685.94L2668.44 1290H2677ZM2745.4 1297.34C2747.77 1294.64 2750.27 1292.62 2752.9 1291.29C2755.53 1289.93 2758.18 1289.26 2760.87 1289.26C2762.27 1289.26 2763.58 1289.57 2764.77 1290.2C2766 1290.82 2767.06 1291.68 2767.98 1292.77C2768.89 1293.87 2769.6 1295.16 2770.12 1296.64C2770.65 1298.1 2770.91 1299.66 2770.91 1301.33V1330H2762.98V1302.7C2762.98 1300.04 2762.38 1298.03 2761.18 1296.68C2759.98 1295.3 2758.44 1294.61 2756.57 1294.61C2755.74 1294.61 2754.85 1294.75 2753.91 1295.04C2752.98 1295.33 2752.03 1295.73 2751.06 1296.25C2750.1 1296.74 2749.14 1297.34 2748.17 1298.05C2747.21 1298.75 2746.28 1299.53 2745.4 1300.39V1330H2737.43V1271.88L2743.13 1269.61H2745.4V1297.34ZM2785.63 1291.52L2791.22 1289.26H2793.52V1330H2785.63V1291.52ZM2785.01 1274.69C2785.01 1274.06 2785.12 1273.48 2785.36 1272.93C2785.59 1272.38 2785.92 1271.9 2786.34 1271.48C2786.75 1271.07 2787.23 1270.74 2787.78 1270.51C2788.33 1270.27 2788.91 1270.16 2789.54 1270.16C2790.16 1270.16 2790.75 1270.27 2791.3 1270.51C2791.84 1270.74 2792.33 1271.07 2792.74 1271.48C2793.16 1271.9 2793.48 1272.38 2793.72 1272.93C2793.95 1273.48 2794.07 1274.06 2794.07 1274.69C2794.07 1275.31 2793.95 1275.9 2793.72 1276.45C2793.48 1276.99 2793.16 1277.47 2792.74 1277.89C2792.33 1278.31 2791.84 1278.63 2791.3 1278.87C2790.75 1279.1 2790.16 1279.22 2789.54 1279.22C2788.91 1279.22 2788.33 1279.1 2787.78 1278.87C2787.23 1278.63 2786.75 1278.31 2786.34 1277.89C2785.92 1277.47 2785.59 1276.99 2785.36 1276.45C2785.12 1275.9 2785.01 1275.31 2785.01 1274.69ZM2834.38 1301.25C2834.1 1300.21 2833.71 1299.15 2833.21 1298.09C2832.72 1297.02 2832.08 1296.05 2831.3 1295.2C2830.54 1294.31 2829.64 1293.59 2828.6 1293.05C2827.56 1292.5 2826.34 1292.23 2824.93 1292.23C2823.13 1292.23 2821.52 1292.59 2820.09 1293.32C2818.65 1294.05 2817.44 1295.04 2816.45 1296.29C2815.46 1297.54 2814.71 1299 2814.19 1300.66C2813.67 1302.33 2813.41 1304.1 2813.41 1305.98C2813.41 1308.53 2813.73 1310.95 2814.38 1313.24C2815.06 1315.51 2816 1317.5 2817.19 1319.22C2818.42 1320.94 2819.88 1322.3 2821.57 1323.32C2823.29 1324.31 2825.2 1324.8 2827.31 1324.8C2829.16 1324.8 2830.76 1324.52 2832.12 1323.95C2833.5 1323.35 2834.68 1322.55 2835.67 1321.56C2836.69 1320.57 2837.56 1319.43 2838.29 1318.12C2839.02 1316.8 2839.67 1315.4 2840.24 1313.95L2842.62 1314.92C2841.95 1317.42 2841.04 1319.66 2839.89 1321.64C2838.74 1323.62 2837.39 1325.3 2835.83 1326.68C2834.29 1328.03 2832.55 1329.08 2830.59 1329.8C2828.67 1330.51 2826.57 1330.86 2824.3 1330.86C2821.67 1330.86 2819.21 1330.35 2816.92 1329.34C2814.63 1328.29 2812.64 1326.88 2810.94 1325.08C2809.25 1323.28 2807.91 1321.18 2806.92 1318.79C2805.93 1316.39 2805.44 1313.83 2805.44 1311.09C2805.44 1309.09 2805.68 1307.16 2806.18 1305.31C2806.67 1303.44 2807.36 1301.69 2808.25 1300.08C2809.16 1298.46 2810.24 1296.99 2811.49 1295.66C2812.77 1294.34 2814.17 1293.2 2815.71 1292.27C2817.25 1291.3 2818.89 1290.56 2820.63 1290.04C2822.4 1289.52 2824.24 1289.26 2826.14 1289.26C2827.73 1289.26 2829.25 1289.44 2830.71 1289.8C2832.17 1290.17 2833.51 1290.69 2834.73 1291.37C2835.96 1292.02 2837.04 1292.84 2837.98 1293.83C2838.91 1294.79 2839.64 1295.87 2840.16 1297.07L2834.38 1301.25ZM2861.88 1297.34C2864.25 1294.64 2866.75 1292.62 2869.38 1291.29C2872.01 1289.93 2874.67 1289.26 2877.35 1289.26C2878.76 1289.26 2880.06 1289.57 2881.26 1290.2C2882.48 1290.82 2883.55 1291.68 2884.46 1292.77C2885.37 1293.87 2886.09 1295.16 2886.61 1296.64C2887.13 1298.1 2887.39 1299.66 2887.39 1301.33V1330H2879.46V1302.7C2879.46 1300.04 2878.86 1298.03 2877.66 1296.68C2876.47 1295.3 2874.93 1294.61 2873.05 1294.61C2872.22 1294.61 2871.34 1294.75 2870.4 1295.04C2869.46 1295.33 2868.51 1295.73 2867.55 1296.25C2866.58 1296.74 2865.62 1297.34 2864.66 1298.05C2863.69 1298.75 2862.77 1299.53 2861.88 1300.39V1330H2853.91V1271.88L2859.62 1269.61H2861.88V1297.34ZM2925.87 1330H2917.9V1271.88L2923.56 1269.61H2925.87V1330ZM2956.84 1330.86C2954.14 1330.86 2951.58 1330.35 2949.19 1329.34C2946.82 1328.32 2944.75 1326.94 2942.98 1325.2C2941.21 1323.45 2939.8 1321.41 2938.76 1319.06C2937.74 1316.69 2937.23 1314.18 2937.23 1311.52C2937.23 1308.32 2937.7 1305.36 2938.64 1302.66C2939.58 1299.92 2940.91 1297.57 2942.62 1295.59C2944.34 1293.61 2946.4 1292.06 2948.8 1290.94C2951.22 1289.82 2953.91 1289.26 2956.88 1289.26C2959.49 1289.26 2961.88 1289.73 2964.07 1290.66C2966.26 1291.58 2968.13 1292.81 2969.69 1294.38C2971.28 1295.91 2972.51 1297.7 2973.37 1299.73C2974.25 1301.76 2974.69 1303.88 2974.69 1306.09H2944.89C2944.89 1308.78 2945.23 1311.26 2945.91 1313.55C2946.61 1315.85 2947.59 1317.83 2948.84 1319.49C2950.09 1321.16 2951.57 1322.46 2953.29 1323.4C2955.01 1324.34 2956.9 1324.8 2958.95 1324.8C2960.67 1324.8 2962.33 1324.53 2963.91 1323.98C2965.5 1323.41 2966.93 1322.67 2968.21 1321.76C2969.51 1320.85 2970.62 1319.8 2971.53 1318.63C2972.44 1317.46 2973.08 1316.25 2973.44 1315L2975.75 1316.02C2975.18 1318.07 2974.25 1320 2972.98 1321.8C2971.7 1323.59 2970.2 1325.17 2968.48 1326.52C2966.79 1327.85 2964.94 1328.91 2962.94 1329.69C2960.93 1330.47 2958.9 1330.86 2956.84 1330.86ZM2964.73 1302.89C2964.73 1301.38 2964.46 1299.97 2963.91 1298.67C2963.39 1297.37 2962.66 1296.25 2961.73 1295.31C2960.79 1294.35 2959.69 1293.59 2958.44 1293.05C2957.19 1292.5 2955.85 1292.23 2954.42 1292.23C2953.22 1292.23 2952.08 1292.5 2950.98 1293.05C2949.89 1293.57 2948.91 1294.31 2948.05 1295.27C2947.19 1296.21 2946.48 1297.33 2945.91 1298.63C2945.36 1299.93 2945.03 1301.34 2944.93 1302.85L2964.73 1302.89ZM2988.25 1290L3002.39 1320.27L3015.94 1290H3019.54L3001.53 1330.43H2998.8L2979.93 1290H2988.25ZM3043.41 1330.86C3040.7 1330.86 3038.15 1330.35 3035.75 1329.34C3033.38 1328.32 3031.31 1326.94 3029.54 1325.2C3027.77 1323.45 3026.36 1321.41 3025.32 1319.06C3024.3 1316.69 3023.8 1314.18 3023.8 1311.52C3023.8 1308.32 3024.27 1305.36 3025.2 1302.66C3026.14 1299.92 3027.47 1297.57 3029.19 1295.59C3030.91 1293.61 3032.96 1292.06 3035.36 1290.94C3037.78 1289.82 3040.48 1289.26 3043.44 1289.26C3046.05 1289.26 3048.44 1289.73 3050.63 1290.66C3052.82 1291.58 3054.69 1292.81 3056.26 1294.38C3057.85 1295.91 3059.07 1297.7 3059.93 1299.73C3060.81 1301.76 3061.26 1303.88 3061.26 1306.09H3031.45C3031.45 1308.78 3031.79 1311.26 3032.47 1313.55C3033.17 1315.85 3034.15 1317.83 3035.4 1319.49C3036.65 1321.16 3038.13 1322.46 3039.85 1323.4C3041.57 1324.34 3043.46 1324.8 3045.52 1324.8C3047.23 1324.8 3048.89 1324.53 3050.48 1323.98C3052.06 1323.41 3053.5 1322.67 3054.77 1321.76C3056.08 1320.85 3057.18 1319.8 3058.09 1318.63C3059 1317.46 3059.64 1316.25 3060.01 1315L3062.31 1316.02C3061.74 1318.07 3060.81 1320 3059.54 1321.8C3058.26 1323.59 3056.77 1325.17 3055.05 1326.52C3053.35 1327.85 3051.5 1328.91 3049.5 1329.69C3047.49 1330.47 3045.46 1330.86 3043.41 1330.86ZM3051.3 1302.89C3051.3 1301.38 3051.02 1299.97 3050.48 1298.67C3049.96 1297.37 3049.23 1296.25 3048.29 1295.31C3047.35 1294.35 3046.26 1293.59 3045.01 1293.05C3043.76 1292.5 3042.42 1292.23 3040.98 1292.23C3039.79 1292.23 3038.64 1292.5 3037.55 1293.05C3036.45 1293.57 3035.48 1294.31 3034.62 1295.27C3033.76 1296.21 3033.04 1297.33 3032.47 1298.63C3031.92 1299.93 3031.6 1301.34 3031.49 1302.85L3051.3 1302.89ZM3079.27 1289.26H3080.48L3081.53 1297.42C3082.16 1296.22 3082.94 1295.13 3083.87 1294.14C3084.81 1293.15 3085.84 1292.29 3086.96 1291.56C3088.11 1290.83 3089.3 1290.27 3090.55 1289.88C3091.83 1289.47 3093.12 1289.26 3094.42 1289.26C3095.59 1289.26 3096.74 1289.41 3097.86 1289.73C3099 1290.04 3100.07 1290.53 3101.06 1291.21L3098.56 1297.89C3098.04 1297.32 3097.49 1296.86 3096.92 1296.52C3096.35 1296.16 3095.76 1295.89 3095.16 1295.7C3094.56 1295.49 3093.95 1295.36 3093.33 1295.31C3092.7 1295.26 3092.08 1295.23 3091.45 1295.23C3090.46 1295.23 3089.49 1295.38 3088.52 1295.66C3087.59 1295.95 3086.69 1296.38 3085.83 1296.95C3084.97 1297.5 3084.17 1298.22 3083.44 1299.1C3082.72 1299.96 3082.08 1300.98 3081.53 1302.15V1330H3073.6V1291.45L3079.27 1289.26ZM3133.09 1330C3132.05 1329.48 3131.17 1328.75 3130.44 1327.81C3129.73 1326.85 3129.38 1325.76 3129.38 1324.53C3128.44 1325.23 3127.52 1325.96 3126.61 1326.72C3125.72 1327.47 3124.75 1328.16 3123.68 1328.79C3122.64 1329.39 3121.47 1329.88 3120.16 1330.27C3118.89 1330.66 3117.4 1330.86 3115.71 1330.86C3114.15 1330.86 3112.73 1330.6 3111.45 1330.08C3110.2 1329.58 3109.14 1328.89 3108.25 1328.01C3107.39 1327.12 3106.71 1326.07 3106.22 1324.84C3105.75 1323.62 3105.52 1322.3 3105.52 1320.9C3105.52 1319.18 3105.85 1317.63 3106.53 1316.25C3107.21 1314.87 3108.13 1313.65 3109.3 1312.58C3110.5 1311.48 3111.88 1310.52 3113.44 1309.69C3115.01 1308.83 3116.67 1308.07 3118.44 1307.42C3120.22 1306.74 3122.04 1306.15 3123.91 1305.62C3125.79 1305.1 3127.61 1304.62 3129.38 1304.18V1301.68C3129.38 1299.86 3129.25 1298.32 3128.99 1297.07C3128.73 1295.82 3128.33 1294.82 3127.78 1294.06C3127.23 1293.28 3126.53 1292.73 3125.67 1292.42C3124.84 1292.08 3123.84 1291.91 3122.66 1291.91C3121.54 1291.91 3120.52 1292.14 3119.58 1292.58C3118.64 1293.02 3117.81 1293.62 3117.08 1294.38C3116.37 1295.1 3115.79 1295.98 3115.32 1296.99C3114.88 1297.98 3114.58 1299.04 3114.42 1300.16H3107.16C3107.36 1298.44 3107.95 1296.9 3108.91 1295.55C3109.9 1294.19 3111.14 1293.06 3112.62 1292.15C3114.11 1291.21 3115.79 1290.49 3117.66 1290C3119.56 1289.51 3121.53 1289.26 3123.56 1289.26C3126.17 1289.26 3128.35 1289.52 3130.12 1290.04C3131.9 1290.53 3133.31 1291.24 3134.38 1292.15C3135.45 1293.06 3136.21 1294.18 3136.65 1295.51C3137.12 1296.81 3137.35 1298.26 3137.35 1299.84V1324.53C3137.35 1325.76 3137.7 1326.85 3138.41 1327.81C3139.14 1328.75 3140.02 1329.48 3141.06 1330H3133.09ZM3129.38 1306.72C3128.24 1307.08 3127.05 1307.5 3125.83 1307.97C3124.6 1308.44 3123.41 1308.97 3122.23 1309.57C3121.06 1310.14 3119.94 1310.77 3118.87 1311.45C3117.81 1312.12 3116.87 1312.85 3116.06 1313.63C3115.25 1314.41 3114.62 1315.23 3114.15 1316.09C3113.68 1316.95 3113.44 1317.85 3113.44 1318.79C3113.44 1319.78 3113.63 1320.72 3113.99 1321.6C3114.36 1322.46 3114.84 1323.23 3115.44 1323.91C3116.04 1324.56 3116.73 1325.08 3117.51 1325.47C3118.29 1325.83 3119.1 1326.02 3119.93 1326.02C3120.81 1326.02 3121.66 1325.9 3122.47 1325.66C3123.28 1325.43 3124.06 1325.12 3124.81 1324.73C3125.57 1324.31 3126.32 1323.84 3127.08 1323.32C3127.83 1322.8 3128.6 1322.24 3129.38 1321.64V1306.72ZM3187.9 1292.11V1295.47H3180.32C3181.08 1296.54 3181.69 1297.76 3182.16 1299.14C3182.65 1300.49 3182.9 1301.84 3182.9 1303.16C3182.9 1305.25 3182.44 1307.14 3181.53 1308.83C3180.62 1310.52 3179.34 1311.98 3177.7 1313.2C3176.09 1314.43 3174.15 1315.38 3171.88 1316.05C3169.62 1316.71 3167.12 1317.03 3164.38 1317.03C3163.37 1317.03 3162.33 1316.95 3161.26 1316.8C3160.22 1316.64 3159.3 1316.43 3158.52 1316.17C3157.77 1316.8 3157.13 1317.53 3156.61 1318.36C3156.09 1319.17 3155.83 1319.99 3155.83 1320.82C3155.83 1321.63 3156.26 1322.27 3157.12 1322.73C3158 1323.2 3159.25 1323.48 3160.87 1323.55L3175.63 1324.22C3178 1324.32 3179.97 1324.61 3181.53 1325.08C3183.12 1325.52 3184.38 1326.13 3185.32 1326.91C3186.26 1327.67 3186.92 1328.57 3187.31 1329.61C3187.7 1330.65 3187.9 1331.82 3187.9 1333.12C3187.9 1335.44 3187.35 1337.54 3186.26 1339.41C3185.19 1341.32 3183.64 1342.93 3181.61 1344.26C3179.58 1345.59 3177.09 1346.61 3174.15 1347.34C3171.23 1348.07 3167.92 1348.44 3164.23 1348.44C3160.92 1348.44 3158.03 1348.24 3155.55 1347.85C3153.08 1347.46 3151.02 1346.9 3149.38 1346.17C3147.74 1345.47 3146.52 1344.61 3145.71 1343.59C3144.9 1342.6 3144.5 1341.48 3144.5 1340.23C3144.5 1339.14 3144.77 1338.09 3145.32 1337.07C3145.87 1336.08 3146.57 1335.12 3147.43 1334.18C3148.29 1333.27 3149.24 1332.38 3150.28 1331.52C3151.32 1330.66 3152.35 1329.84 3153.37 1329.06C3152.64 1328.83 3151.95 1328.55 3151.3 1328.24C3150.67 1327.9 3150.12 1327.53 3149.66 1327.11C3149.19 1326.69 3148.82 1326.25 3148.56 1325.78C3148.3 1325.29 3148.17 1324.77 3148.17 1324.22C3148.17 1323.41 3148.38 1322.58 3148.8 1321.72C3149.24 1320.83 3149.83 1320 3150.55 1319.22C3151.31 1318.41 3152.17 1317.68 3153.13 1317.03C3154.12 1316.35 3155.18 1315.82 3156.3 1315.43C3153.61 1314.28 3151.5 1312.7 3149.97 1310.66C3148.46 1308.61 3147.7 1306.25 3147.7 1303.59C3147.7 1301.64 3148.15 1299.79 3149.03 1298.05C3149.94 1296.3 3151.19 1294.78 3152.78 1293.48C3154.37 1292.17 3156.22 1291.15 3158.33 1290.39C3160.46 1289.64 3162.77 1289.26 3165.24 1289.26C3166.44 1289.26 3167.61 1289.34 3168.76 1289.49C3169.93 1289.65 3171.01 1289.86 3172 1290.12C3173.02 1290.38 3173.9 1290.68 3174.66 1291.02C3175.44 1291.35 3176.05 1291.72 3176.49 1292.11H3187.9ZM3155.83 1329.69C3155.23 1330.13 3154.71 1330.62 3154.27 1331.17C3153.82 1331.72 3153.44 1332.29 3153.13 1332.89C3152.82 1333.49 3152.59 1334.09 3152.43 1334.69C3152.27 1335.31 3152.19 1335.9 3152.19 1336.45C3152.19 1337.33 3152.51 1338.18 3153.13 1338.98C3153.76 1339.79 3154.69 1340.51 3155.94 1341.13C3157.19 1341.76 3158.76 1342.25 3160.63 1342.62C3162.53 1342.98 3164.73 1343.16 3167.23 1343.16C3169.89 1343.16 3172.26 1342.96 3174.34 1342.54C3176.45 1342.12 3178.24 1341.56 3179.69 1340.86C3181.18 1340.18 3182.3 1339.41 3183.05 1338.55C3183.84 1337.72 3184.23 1336.88 3184.23 1336.02C3184.23 1335.13 3183.99 1334.36 3183.52 1333.71C3183.08 1333.06 3182.43 1332.53 3181.57 1332.11C3180.71 1331.69 3179.67 1331.38 3178.44 1331.17C3177.22 1330.96 3175.84 1330.86 3174.3 1330.86C3172.38 1330.86 3170.44 1330.81 3168.48 1330.7C3166.53 1330.62 3164.71 1330.52 3163.02 1330.39C3161.32 1330.29 3159.84 1330.16 3158.56 1330C3157.29 1329.87 3156.37 1329.77 3155.83 1329.69ZM3165.71 1314.96C3166.83 1314.96 3167.91 1314.71 3168.95 1314.22C3169.99 1313.7 3170.91 1312.99 3171.69 1312.11C3172.49 1311.22 3173.13 1310.2 3173.6 1309.02C3174.07 1307.83 3174.3 1306.54 3174.3 1305.16C3174.3 1303.2 3174.03 1301.39 3173.48 1299.73C3172.96 1298.03 3172.25 1296.58 3171.34 1295.35C3170.42 1294.1 3169.36 1293.12 3168.13 1292.42C3166.91 1291.72 3165.62 1291.37 3164.27 1291.37C3162.94 1291.37 3161.78 1291.64 3160.79 1292.19C3159.83 1292.73 3159.03 1293.5 3158.41 1294.49C3157.78 1295.46 3157.31 1296.6 3157 1297.93C3156.71 1299.23 3156.57 1300.64 3156.57 1302.15C3156.57 1303.95 3156.79 1305.62 3157.23 1307.19C3157.68 1308.75 3158.3 1310.12 3159.11 1311.29C3159.92 1312.43 3160.88 1313.33 3162 1313.98C3163.12 1314.64 3164.36 1314.96 3165.71 1314.96ZM3212.23 1330.86C3209.53 1330.86 3206.97 1330.35 3204.58 1329.34C3202.21 1328.32 3200.14 1326.94 3198.37 1325.2C3196.6 1323.45 3195.19 1321.41 3194.15 1319.06C3193.13 1316.69 3192.62 1314.18 3192.62 1311.52C3192.62 1308.32 3193.09 1305.36 3194.03 1302.66C3194.97 1299.92 3196.3 1297.57 3198.02 1295.59C3199.73 1293.61 3201.79 1292.06 3204.19 1290.94C3206.61 1289.82 3209.3 1289.26 3212.27 1289.26C3214.88 1289.26 3217.27 1289.73 3219.46 1290.66C3221.65 1291.58 3223.52 1292.81 3225.09 1294.38C3226.67 1295.91 3227.9 1297.7 3228.76 1299.73C3229.64 1301.76 3230.09 1303.88 3230.09 1306.09H3200.28C3200.28 1308.78 3200.62 1311.26 3201.3 1313.55C3202 1315.85 3202.98 1317.83 3204.23 1319.49C3205.48 1321.16 3206.96 1322.46 3208.68 1323.4C3210.4 1324.34 3212.29 1324.8 3214.34 1324.8C3216.06 1324.8 3217.72 1324.53 3219.3 1323.98C3220.89 1323.41 3222.33 1322.67 3223.6 1321.76C3224.9 1320.85 3226.01 1319.8 3226.92 1318.63C3227.83 1317.46 3228.47 1316.25 3228.84 1315L3231.14 1316.02C3230.57 1318.07 3229.64 1320 3228.37 1321.8C3227.09 1323.59 3225.59 1325.17 3223.87 1326.52C3222.18 1327.85 3220.33 1328.91 3218.33 1329.69C3216.32 1330.47 3214.29 1330.86 3212.23 1330.86ZM3220.12 1302.89C3220.12 1301.38 3219.85 1299.97 3219.3 1298.67C3218.78 1297.37 3218.05 1296.25 3217.12 1295.31C3216.18 1294.35 3215.09 1293.59 3213.84 1293.05C3212.59 1292.5 3211.24 1292.23 3209.81 1292.23C3208.61 1292.23 3207.47 1292.5 3206.37 1293.05C3205.28 1293.57 3204.3 1294.31 3203.44 1295.27C3202.59 1296.21 3201.87 1297.33 3201.3 1298.63C3200.75 1299.93 3200.42 1301.34 3200.32 1302.85L3220.12 1302.89ZM3254.5 1328.09C3255.57 1328.09 3256.56 1327.93 3257.47 1327.62C3258.38 1327.28 3259.16 1326.84 3259.81 1326.29C3260.49 1325.74 3261.01 1325.12 3261.37 1324.41C3261.74 1323.68 3261.92 1322.94 3261.92 1322.19C3261.92 1320.96 3261.61 1319.9 3260.98 1318.98C3260.39 1318.07 3259.58 1317.27 3258.56 1316.56C3257.57 1315.83 3256.44 1315.17 3255.16 1314.57C3253.89 1313.97 3252.59 1313.36 3251.26 1312.73C3249.93 1312.08 3248.63 1311.41 3247.35 1310.7C3246.08 1309.97 3244.93 1309.13 3243.91 1308.16C3242.92 1307.2 3242.12 1306.09 3241.49 1304.84C3240.89 1303.57 3240.59 1302.08 3240.59 1300.39C3240.59 1298.8 3240.93 1297.33 3241.61 1295.98C3242.29 1294.6 3243.22 1293.41 3244.42 1292.42C3245.65 1291.43 3247.09 1290.66 3248.76 1290.12C3250.42 1289.54 3252.25 1289.26 3254.23 1289.26C3255.55 1289.26 3256.79 1289.35 3257.94 1289.53C3259.08 1289.71 3260.2 1290.07 3261.3 1290.59C3262.42 1291.11 3263.52 1291.86 3264.62 1292.85C3265.71 1293.82 3266.87 1295.08 3268.09 1296.64L3265.16 1299.26C3263.65 1296.78 3261.96 1294.95 3260.09 1293.75C3258.24 1292.53 3256.26 1291.91 3254.15 1291.91C3253 1291.91 3251.96 1292.06 3251.02 1292.34C3250.09 1292.6 3249.28 1292.98 3248.6 1293.48C3247.95 1293.95 3247.43 1294.51 3247.04 1295.16C3246.67 1295.81 3246.49 1296.5 3246.49 1297.23C3246.49 1298.42 3246.82 1299.47 3247.47 1300.35C3248.15 1301.24 3249.03 1302.04 3250.12 1302.77C3251.22 1303.48 3252.46 1304.13 3253.84 1304.73C3255.24 1305.33 3256.66 1305.94 3258.09 1306.56C3259.55 1307.19 3260.97 1307.86 3262.35 1308.59C3263.76 1309.32 3265.01 1310.17 3266.1 1311.13C3267.19 1312.07 3268.07 1313.16 3268.72 1314.41C3269.4 1315.66 3269.73 1317.12 3269.73 1318.79C3269.73 1320.48 3269.42 1322.07 3268.8 1323.55C3268.17 1325.01 3267.22 1326.29 3265.94 1327.38C3264.69 1328.45 3263.12 1329.3 3261.22 1329.92C3259.32 1330.55 3257.08 1330.86 3254.5 1330.86C3253.33 1330.86 3252.12 1330.77 3250.87 1330.59C3249.64 1330.4 3248.41 1330.05 3247.16 1329.53C3245.91 1328.98 3244.66 1328.23 3243.41 1327.27C3242.16 1326.3 3240.93 1325.04 3239.73 1323.48L3242.98 1320.55C3243.94 1321.9 3244.86 1323.06 3245.75 1324.02C3246.64 1324.96 3247.53 1325.74 3248.44 1326.37C3249.38 1326.97 3250.33 1327.41 3251.3 1327.7C3252.29 1327.96 3253.35 1328.09 3254.5 1328.09ZM3297.43 1278.2H3306.14V1301.17L3333.41 1278.2H3339.07L3313.21 1300L3346.02 1330H3334.93L3306.14 1303.71V1330H3297.43V1278.2ZM3369.46 1330.86C3366.39 1330.86 3363.56 1330.33 3360.98 1329.26C3358.41 1328.19 3356.18 1326.74 3354.3 1324.92C3352.43 1323.07 3350.96 1320.92 3349.89 1318.48C3348.85 1316 3348.33 1313.36 3348.33 1310.55C3348.33 1307.6 3348.85 1304.84 3349.89 1302.27C3350.96 1299.66 3352.43 1297.4 3354.3 1295.47C3356.18 1293.54 3358.41 1292.03 3360.98 1290.94C3363.56 1289.82 3366.39 1289.26 3369.46 1289.26C3372.51 1289.26 3375.31 1289.77 3377.86 1290.78C3380.44 1291.8 3382.66 1293.19 3384.54 1294.96C3386.41 1296.73 3387.87 1298.82 3388.91 1301.21C3389.98 1303.58 3390.52 1306.13 3390.52 1308.87C3390.52 1311.89 3389.98 1314.74 3388.91 1317.42C3387.87 1320.08 3386.41 1322.41 3384.54 1324.41C3382.66 1326.39 3380.44 1327.97 3377.86 1329.14C3375.31 1330.29 3372.51 1330.86 3369.46 1330.86ZM3370.98 1327.93C3372.55 1327.93 3373.98 1327.53 3375.28 1326.72C3376.58 1325.91 3377.7 1324.83 3378.64 1323.48C3379.58 1322.1 3380.31 1320.51 3380.83 1318.71C3381.35 1316.91 3381.61 1315.01 3381.61 1313.01C3381.61 1310.12 3381.36 1307.41 3380.87 1304.88C3380.37 1302.36 3379.56 1300.16 3378.44 1298.28C3377.33 1296.41 3375.87 1294.93 3374.07 1293.87C3372.27 1292.77 3370.09 1292.23 3367.51 1292.23C3366.18 1292.23 3364.89 1292.62 3363.64 1293.4C3362.39 1294.15 3361.28 1295.2 3360.32 1296.52C3359.38 1297.85 3358.63 1299.41 3358.05 1301.21C3357.48 1302.98 3357.19 1304.87 3357.19 1306.88C3357.19 1309.79 3357.49 1312.53 3358.09 1315.08C3358.72 1317.63 3359.62 1319.86 3360.79 1321.76C3361.99 1323.66 3363.43 1325.17 3365.12 1326.29C3366.84 1327.38 3368.8 1327.93 3370.98 1327.93ZM3410.2 1276.41H3412.47V1290H3421.37V1293.4H3412.47V1321.56C3412.47 1322.16 3412.57 1322.72 3412.78 1323.24C3413.02 1323.76 3413.31 1324.22 3413.68 1324.61C3414.07 1325 3414.53 1325.31 3415.05 1325.55C3415.57 1325.76 3416.14 1325.86 3416.77 1325.86C3417.65 1325.86 3418.46 1325.64 3419.19 1325.2C3419.92 1324.75 3420.55 1324.21 3421.1 1323.55L3423.09 1324.88C3422 1326.73 3420.58 1328.19 3418.84 1329.26C3417.09 1330.33 3414.93 1330.86 3412.35 1330.86C3411.02 1330.86 3409.86 1330.62 3408.87 1330.16C3407.89 1329.71 3407.06 1329.09 3406.41 1328.28C3405.79 1327.45 3405.32 1326.47 3405.01 1325.35C3404.69 1324.21 3404.54 1322.94 3404.54 1321.56V1293.4H3397.59V1291.91L3404.54 1290V1278.63L3410.2 1276.41ZM3441.57 1330H3433.6V1271.88L3439.27 1269.61H3441.57V1330ZM3456.26 1291.52L3461.84 1289.26H3464.15V1330H3456.26V1291.52ZM3455.63 1274.69C3455.63 1274.06 3455.75 1273.48 3455.98 1272.93C3456.22 1272.38 3456.54 1271.9 3456.96 1271.48C3457.38 1271.07 3457.86 1270.74 3458.41 1270.51C3458.95 1270.27 3459.54 1270.16 3460.16 1270.16C3460.79 1270.16 3461.37 1270.27 3461.92 1270.51C3462.47 1270.74 3462.95 1271.07 3463.37 1271.48C3463.78 1271.9 3464.11 1272.38 3464.34 1272.93C3464.58 1273.48 3464.69 1274.06 3464.69 1274.69C3464.69 1275.31 3464.58 1275.9 3464.34 1276.45C3464.11 1276.99 3463.78 1277.47 3463.37 1277.89C3462.95 1278.31 3462.47 1278.63 3461.92 1278.87C3461.37 1279.1 3460.79 1279.22 3460.16 1279.22C3459.54 1279.22 3458.95 1279.1 3458.41 1278.87C3457.86 1278.63 3457.38 1278.31 3456.96 1277.89C3456.54 1277.47 3456.22 1276.99 3455.98 1276.45C3455.75 1275.9 3455.63 1275.31 3455.63 1274.69ZM3484.46 1289.26H3486.73V1297.34C3489.15 1294.64 3491.66 1292.62 3494.27 1291.29C3496.87 1289.93 3499.51 1289.26 3502.19 1289.26C3503.6 1289.26 3504.9 1289.57 3506.1 1290.2C3507.33 1290.82 3508.39 1291.68 3509.3 1292.77C3510.22 1293.87 3510.93 1295.16 3511.45 1296.64C3511.97 1298.1 3512.23 1299.66 3512.23 1301.33V1330H3504.3V1302.7C3504.3 1301.37 3504.15 1300.21 3503.84 1299.22C3503.52 1298.2 3503.08 1297.36 3502.51 1296.68C3501.93 1296 3501.26 1295.49 3500.48 1295.16C3499.72 1294.79 3498.87 1294.61 3497.94 1294.61C3497.1 1294.61 3496.22 1294.75 3495.28 1295.04C3494.34 1295.33 3493.38 1295.73 3492.39 1296.25C3491.43 1296.74 3490.46 1297.34 3489.5 1298.05C3488.54 1298.75 3487.61 1299.53 3486.73 1300.39V1330H3478.76V1291.48L3484.46 1289.26ZM3542.74 1278.2H3560.01C3565.32 1278.2 3569.89 1278.7 3573.72 1279.69C3577.55 1280.68 3580.74 1282.27 3583.29 1284.45C3586.21 1286.95 3588.39 1289.82 3589.85 1293.05C3591.34 1296.28 3592.08 1299.8 3592.08 1303.63C3592.08 1307.28 3591.41 1310.7 3590.09 1313.91C3588.78 1317.11 3586.86 1319.91 3584.3 1322.3C3581.78 1324.67 3578.64 1326.55 3574.89 1327.93C3571.17 1329.31 3566.9 1330 3562.08 1330H3542.74V1278.2ZM3551.45 1326.21H3560.71C3563.63 1326.21 3566.37 1325.73 3568.95 1324.77C3571.53 1323.8 3573.77 1322.37 3575.67 1320.47C3577.6 1318.57 3579.11 1316.24 3580.2 1313.48C3581.32 1310.69 3581.88 1307.47 3581.88 1303.83C3581.88 1300.62 3581.36 1297.7 3580.32 1295.04C3579.28 1292.36 3577.82 1290.05 3575.94 1288.12C3574.07 1286.2 3571.83 1284.7 3569.23 1283.63C3566.65 1282.57 3563.82 1282.03 3560.75 1282.03H3551.45V1326.21ZM3620.79 1327.93C3622.06 1327.93 3623.33 1327.76 3624.58 1327.42C3625.83 1327.06 3626.95 1326.54 3627.94 1325.86C3628.93 1325.16 3629.72 1324.31 3630.32 1323.32C3630.92 1322.3 3631.22 1321.13 3631.22 1319.8C3631.22 1318.22 3630.8 1316.81 3629.97 1315.59C3629.16 1314.34 3628.09 1313.2 3626.77 1312.19C3625.44 1311.15 3623.91 1310.17 3622.19 1309.26C3620.5 1308.35 3618.77 1307.43 3617 1306.52C3615.23 1305.61 3613.48 1304.66 3611.77 1303.67C3610.07 1302.66 3608.56 1301.54 3607.23 1300.31C3605.91 1299.06 3604.83 1297.68 3603.99 1296.17C3603.18 1294.64 3602.78 1292.88 3602.78 1290.9C3602.78 1288.92 3603.15 1287.08 3603.87 1285.39C3604.63 1283.7 3605.72 1282.24 3607.16 1281.02C3608.59 1279.77 3610.35 1278.79 3612.43 1278.09C3614.54 1277.38 3616.95 1277.03 3619.66 1277.03C3622.1 1277.03 3624.29 1277.29 3626.22 1277.81C3628.15 1278.33 3629.84 1279.1 3631.3 1280.12C3632.75 1281.13 3633.99 1282.38 3635.01 1283.87C3636.02 1285.35 3636.84 1287.07 3637.47 1289.02L3633.02 1291.05C3632.49 1289.47 3631.83 1288.02 3631.02 1286.72C3630.22 1285.39 3629.25 1284.26 3628.13 1283.32C3627.01 1282.38 3625.71 1281.67 3624.23 1281.17C3622.77 1280.65 3621.11 1280.39 3619.27 1280.39C3617.62 1280.39 3616.19 1280.62 3614.97 1281.09C3613.74 1281.54 3612.72 1282.14 3611.88 1282.89C3611.08 1283.62 3610.46 1284.45 3610.05 1285.39C3609.66 1286.3 3609.46 1287.24 3609.46 1288.2C3609.46 1289.56 3609.88 1290.81 3610.71 1291.95C3611.54 1293.07 3612.65 1294.14 3614.03 1295.16C3615.41 1296.15 3616.97 1297.11 3618.72 1298.05C3620.49 1298.98 3622.29 1299.93 3624.11 1300.9C3625.93 1301.86 3627.72 1302.86 3629.46 1303.91C3631.23 1304.95 3632.81 1306.09 3634.19 1307.34C3635.57 1308.57 3636.67 1309.92 3637.51 1311.41C3638.34 1312.86 3638.76 1314.51 3638.76 1316.33C3638.76 1318.39 3638.37 1320.33 3637.59 1322.15C3636.8 1323.95 3635.63 1325.52 3634.07 1326.88C3632.51 1328.2 3630.57 1329.26 3628.25 1330.04C3625.93 1330.82 3623.24 1331.21 3620.16 1331.21C3617.66 1331.21 3615.44 1330.94 3613.48 1330.39C3611.53 1329.84 3609.8 1329.05 3608.29 1328.01C3606.8 1326.97 3605.53 1325.7 3604.46 1324.22C3603.39 1322.71 3602.52 1320.99 3601.84 1319.06L3606.49 1317.15C3607.04 1318.84 3607.77 1320.35 3608.68 1321.68C3609.62 1323.01 3610.7 1324.14 3611.92 1325.08C3613.15 1325.99 3614.5 1326.69 3615.98 1327.19C3617.49 1327.68 3619.1 1327.93 3620.79 1327.93ZM3650.87 1278.2H3659.58V1326.64H3685.67V1330H3650.87V1278.2ZM1990.67 1386.41H1992.94V1400H2001.84V1403.4H1992.94V1431.56C1992.94 1432.16 1993.04 1432.72 1993.25 1433.24C1993.48 1433.76 1993.78 1434.22 1994.15 1434.61C1994.54 1435 1994.99 1435.31 1995.52 1435.55C1996.04 1435.76 1996.61 1435.86 1997.23 1435.86C1998.12 1435.86 1998.93 1435.64 1999.66 1435.2C2000.39 1434.75 2001.02 1434.21 2001.57 1433.55L2003.56 1434.88C2002.47 1436.73 2001.05 1438.19 1999.3 1439.26C1997.56 1440.33 1995.4 1440.86 1992.82 1440.86C1991.49 1440.86 1990.33 1440.62 1989.34 1440.16C1988.35 1439.71 1987.53 1439.09 1986.88 1438.28C1986.26 1437.45 1985.79 1436.47 1985.48 1435.35C1985.16 1434.21 1985.01 1432.94 1985.01 1431.56V1403.4H1978.05V1401.91L1985.01 1400V1388.63L1990.67 1386.41ZM2032.51 1440.86C2029.43 1440.86 2026.61 1440.33 2024.03 1439.26C2021.45 1438.19 2019.23 1436.74 2017.35 1434.92C2015.48 1433.07 2014 1430.92 2012.94 1428.48C2011.9 1426 2011.37 1423.36 2011.37 1420.55C2011.37 1417.6 2011.9 1414.84 2012.94 1412.27C2014 1409.66 2015.48 1407.4 2017.35 1405.47C2019.23 1403.54 2021.45 1402.03 2024.03 1400.94C2026.61 1399.82 2029.43 1399.26 2032.51 1399.26C2035.55 1399.26 2038.35 1399.77 2040.91 1400.78C2043.48 1401.8 2045.71 1403.19 2047.59 1404.96C2049.46 1406.73 2050.92 1408.82 2051.96 1411.21C2053.03 1413.58 2053.56 1416.13 2053.56 1418.87C2053.56 1421.89 2053.03 1424.74 2051.96 1427.42C2050.92 1430.08 2049.46 1432.41 2047.59 1434.41C2045.71 1436.39 2043.48 1437.97 2040.91 1439.14C2038.35 1440.29 2035.55 1440.86 2032.51 1440.86ZM2034.03 1437.93C2035.59 1437.93 2037.03 1437.53 2038.33 1436.72C2039.63 1435.91 2040.75 1434.83 2041.69 1433.48C2042.62 1432.1 2043.35 1430.51 2043.87 1428.71C2044.4 1426.91 2044.66 1425.01 2044.66 1423.01C2044.66 1420.12 2044.41 1417.41 2043.91 1414.88C2043.42 1412.36 2042.61 1410.16 2041.49 1408.28C2040.37 1406.41 2038.91 1404.93 2037.12 1403.87C2035.32 1402.77 2033.13 1402.23 2030.55 1402.23C2029.23 1402.23 2027.94 1402.62 2026.69 1403.4C2025.44 1404.15 2024.33 1405.2 2023.37 1406.52C2022.43 1407.85 2021.67 1409.41 2021.1 1411.21C2020.53 1412.98 2020.24 1414.87 2020.24 1416.88C2020.24 1419.79 2020.54 1422.53 2021.14 1425.08C2021.77 1427.63 2022.66 1429.86 2023.84 1431.76C2025.03 1433.66 2026.48 1435.17 2028.17 1436.29C2029.89 1437.38 2031.84 1437.93 2034.03 1437.93ZM2093.33 1438.09C2094.4 1438.09 2095.39 1437.93 2096.3 1437.62C2097.21 1437.28 2097.99 1436.84 2098.64 1436.29C2099.32 1435.74 2099.84 1435.12 2100.2 1434.41C2100.57 1433.68 2100.75 1432.94 2100.75 1432.19C2100.75 1430.96 2100.44 1429.9 2099.81 1428.98C2099.21 1428.07 2098.41 1427.27 2097.39 1426.56C2096.4 1425.83 2095.27 1425.17 2093.99 1424.57C2092.72 1423.97 2091.41 1423.36 2090.09 1422.73C2088.76 1422.08 2087.46 1421.41 2086.18 1420.7C2084.9 1419.97 2083.76 1419.13 2082.74 1418.16C2081.75 1417.2 2080.94 1416.09 2080.32 1414.84C2079.72 1413.57 2079.42 1412.08 2079.42 1410.39C2079.42 1408.8 2079.76 1407.33 2080.44 1405.98C2081.11 1404.6 2082.05 1403.41 2083.25 1402.42C2084.47 1401.43 2085.92 1400.66 2087.59 1400.12C2089.25 1399.54 2091.08 1399.26 2093.05 1399.26C2094.38 1399.26 2095.62 1399.35 2096.77 1399.53C2097.91 1399.71 2099.03 1400.07 2100.12 1400.59C2101.24 1401.11 2102.35 1401.86 2103.44 1402.85C2104.54 1403.82 2105.7 1405.08 2106.92 1406.64L2103.99 1409.26C2102.48 1406.78 2100.79 1404.95 2098.91 1403.75C2097.06 1402.53 2095.09 1401.91 2092.98 1401.91C2091.83 1401.91 2090.79 1402.06 2089.85 1402.34C2088.91 1402.6 2088.11 1402.98 2087.43 1403.48C2086.78 1403.95 2086.26 1404.51 2085.87 1405.16C2085.5 1405.81 2085.32 1406.5 2085.32 1407.23C2085.32 1408.42 2085.65 1409.47 2086.3 1410.35C2086.97 1411.24 2087.86 1412.04 2088.95 1412.77C2090.05 1413.48 2091.28 1414.13 2092.66 1414.73C2094.07 1415.33 2095.49 1415.94 2096.92 1416.56C2098.38 1417.19 2099.8 1417.86 2101.18 1418.59C2102.59 1419.32 2103.84 1420.17 2104.93 1421.13C2106.02 1422.07 2106.9 1423.16 2107.55 1424.41C2108.22 1425.66 2108.56 1427.12 2108.56 1428.79C2108.56 1430.48 2108.25 1432.07 2107.62 1433.55C2107 1435.01 2106.05 1436.29 2104.77 1437.38C2103.52 1438.45 2101.95 1439.3 2100.05 1439.92C2098.15 1440.55 2095.91 1440.86 2093.33 1440.86C2092.16 1440.86 2090.94 1440.77 2089.69 1440.59C2088.47 1440.4 2087.23 1440.05 2085.98 1439.53C2084.73 1438.98 2083.48 1438.23 2082.23 1437.27C2080.98 1436.3 2079.76 1435.04 2078.56 1433.48L2081.8 1430.55C2082.77 1431.9 2083.69 1433.06 2084.58 1434.02C2085.46 1434.96 2086.36 1435.74 2087.27 1436.37C2088.21 1436.97 2089.16 1437.41 2090.12 1437.7C2091.11 1437.96 2092.18 1438.09 2093.33 1438.09ZM2120.48 1401.52L2126.06 1399.26H2128.37V1440H2120.48V1401.52ZM2119.85 1384.69C2119.85 1384.06 2119.97 1383.48 2120.2 1382.93C2120.44 1382.38 2120.76 1381.9 2121.18 1381.48C2121.6 1381.07 2122.08 1380.74 2122.62 1380.51C2123.17 1380.27 2123.76 1380.16 2124.38 1380.16C2125.01 1380.16 2125.59 1380.27 2126.14 1380.51C2126.69 1380.74 2127.17 1381.07 2127.59 1381.48C2128 1381.9 2128.33 1382.38 2128.56 1382.93C2128.8 1383.48 2128.91 1384.06 2128.91 1384.69C2128.91 1385.31 2128.8 1385.9 2128.56 1386.45C2128.33 1386.99 2128 1387.47 2127.59 1387.89C2127.17 1388.31 2126.69 1388.63 2126.14 1388.87C2125.59 1389.1 2125.01 1389.22 2124.38 1389.22C2123.76 1389.22 2123.17 1389.1 2122.62 1388.87C2122.08 1388.63 2121.6 1388.31 2121.18 1387.89C2120.76 1387.47 2120.44 1386.99 2120.2 1386.45C2119.97 1385.9 2119.85 1385.31 2119.85 1384.69ZM2148.68 1399.26H2150.94V1407.54C2151.96 1406.45 2153.11 1405.4 2154.38 1404.41C2155.66 1403.4 2156.97 1402.51 2158.33 1401.76C2159.68 1400.98 2161.04 1400.36 2162.39 1399.92C2163.74 1399.48 2165.03 1399.26 2166.26 1399.26C2167.43 1399.26 2168.61 1399.47 2169.81 1399.88C2171.04 1400.3 2172.16 1400.89 2173.17 1401.64C2174.21 1402.4 2175.1 1403.29 2175.83 1404.34C2176.58 1405.35 2177.08 1406.47 2177.31 1407.7C2177.96 1406.52 2178.86 1405.43 2180.01 1404.41C2181.18 1403.37 2182.47 1402.47 2183.87 1401.72C2185.28 1400.96 2186.77 1400.36 2188.33 1399.92C2189.92 1399.48 2191.47 1399.26 2192.98 1399.26C2194.49 1399.26 2195.89 1399.6 2197.19 1400.27C2198.52 1400.92 2199.68 1401.82 2200.67 1402.97C2201.66 1404.09 2202.44 1405.42 2203.02 1406.95C2203.59 1408.46 2203.87 1410.08 2203.87 1411.8V1440H2195.94V1412.89C2195.94 1411.77 2195.75 1410.72 2195.36 1409.73C2194.99 1408.71 2194.49 1407.83 2193.84 1407.07C2193.18 1406.32 2192.42 1405.72 2191.53 1405.27C2190.67 1404.83 2189.76 1404.61 2188.8 1404.61C2187.7 1404.61 2186.58 1404.77 2185.44 1405.08C2184.32 1405.36 2183.25 1405.77 2182.23 1406.29C2181.22 1406.81 2180.29 1407.42 2179.46 1408.12C2178.63 1408.8 2177.96 1409.53 2177.47 1410.31V1440H2169.54V1412.89C2169.54 1411.77 2169.34 1410.72 2168.95 1409.73C2168.56 1408.71 2168.04 1407.83 2167.39 1407.07C2166.74 1406.32 2165.97 1405.72 2165.09 1405.27C2164.2 1404.83 2163.28 1404.61 2162.31 1404.61C2161.3 1404.61 2160.24 1404.77 2159.15 1405.08C2158.08 1405.39 2157.03 1405.81 2155.98 1406.33C2154.97 1406.85 2154.02 1407.46 2153.13 1408.16C2152.25 1408.84 2151.52 1409.56 2150.94 1410.31V1440H2142.98V1401.48L2148.68 1399.26ZM2223.68 1399.26H2225.94V1408.24C2226.75 1407.23 2227.64 1406.18 2228.6 1405.12C2229.59 1404.05 2230.67 1403.09 2231.84 1402.23C2233.04 1401.34 2234.36 1400.62 2235.79 1400.08C2237.22 1399.53 2238.78 1399.26 2240.48 1399.26C2242.85 1399.26 2244.99 1399.75 2246.92 1400.74C2248.85 1401.73 2250.49 1403.07 2251.84 1404.77C2253.22 1406.46 2254.28 1408.45 2255.01 1410.74C2255.76 1413.01 2256.14 1415.43 2256.14 1418.01C2256.14 1421.32 2255.68 1424.38 2254.77 1427.19C2253.86 1429.97 2252.56 1432.38 2250.87 1434.41C2249.17 1436.45 2247.12 1438.03 2244.69 1439.18C2242.27 1440.3 2239.56 1440.86 2236.57 1440.86C2235.48 1440.86 2234.45 1440.79 2233.48 1440.66C2232.55 1440.56 2231.65 1440.39 2230.79 1440.16C2229.96 1439.92 2229.14 1439.62 2228.33 1439.26C2227.55 1438.89 2226.75 1438.45 2225.94 1437.93V1456.84H2217.98V1401.48L2223.68 1399.26ZM2225.94 1429.22C2225.94 1430.42 2226.21 1431.55 2226.73 1432.62C2227.25 1433.66 2227.98 1434.58 2228.91 1435.39C2229.85 1436.17 2230.97 1436.8 2232.27 1437.27C2233.58 1437.71 2235.01 1437.93 2236.57 1437.93C2238.05 1437.93 2239.45 1437.55 2240.75 1436.8C2242.08 1436.04 2243.22 1434.97 2244.19 1433.59C2245.18 1432.19 2245.94 1430.52 2246.49 1428.59C2247.06 1426.67 2247.35 1424.53 2247.35 1422.19C2247.35 1419.24 2247.09 1416.68 2246.57 1414.49C2246.05 1412.28 2245.32 1410.44 2244.38 1408.98C2243.47 1407.53 2242.38 1406.43 2241.1 1405.7C2239.85 1404.97 2238.47 1404.61 2236.96 1404.61C2235.81 1404.61 2234.71 1404.79 2233.64 1405.16C2232.6 1405.49 2231.61 1405.96 2230.67 1406.56C2229.73 1407.16 2228.86 1407.85 2228.05 1408.63C2227.27 1409.41 2226.57 1410.23 2225.94 1411.09V1429.22ZM2275.48 1440H2267.51V1381.88L2273.17 1379.61H2275.48V1440ZM2290.16 1401.52L2295.75 1399.26H2298.05V1440H2290.16V1401.52ZM2289.54 1384.69C2289.54 1384.06 2289.66 1383.48 2289.89 1382.93C2290.12 1382.38 2290.45 1381.9 2290.87 1381.48C2291.28 1381.07 2291.77 1380.74 2292.31 1380.51C2292.86 1380.27 2293.44 1380.16 2294.07 1380.16C2294.69 1380.16 2295.28 1380.27 2295.83 1380.51C2296.37 1380.74 2296.86 1381.07 2297.27 1381.48C2297.69 1381.9 2298.02 1382.38 2298.25 1382.93C2298.48 1383.48 2298.6 1384.06 2298.6 1384.69C2298.6 1385.31 2298.48 1385.9 2298.25 1386.45C2298.02 1386.99 2297.69 1387.47 2297.27 1387.89C2296.86 1388.31 2296.37 1388.63 2295.83 1388.87C2295.28 1389.1 2294.69 1389.22 2294.07 1389.22C2293.44 1389.22 2292.86 1389.1 2292.31 1388.87C2291.77 1388.63 2291.28 1388.31 2290.87 1387.89C2290.45 1387.47 2290.12 1386.99 2289.89 1386.45C2289.66 1385.9 2289.54 1385.31 2289.54 1384.69ZM2329.23 1382.58C2328.37 1382.58 2327.57 1382.81 2326.84 1383.28C2326.14 1383.72 2325.53 1384.32 2325.01 1385.08C2324.51 1385.81 2324.12 1386.65 2323.84 1387.62C2323.58 1388.58 2323.44 1389.57 2323.44 1390.59V1400H2334.11V1403.4H2323.44V1440H2315.48V1403.4H2307.16V1400H2315.48V1395.39C2315.48 1393.2 2315.87 1391.16 2316.65 1389.26C2317.43 1387.33 2318.48 1385.66 2319.81 1384.26C2321.17 1382.83 2322.74 1381.69 2324.54 1380.86C2326.36 1380.03 2328.3 1379.61 2330.36 1379.61C2331.77 1379.61 2333.12 1379.79 2334.42 1380.16C2335.75 1380.52 2336.97 1381.04 2338.09 1381.72C2339.21 1382.37 2340.2 1383.19 2341.06 1384.18C2341.95 1385.14 2342.65 1386.22 2343.17 1387.42L2337.39 1391.6C2337.1 1390.56 2336.77 1389.51 2336.37 1388.44C2335.98 1387.37 2335.49 1386.41 2334.89 1385.55C2334.29 1384.66 2333.54 1383.95 2332.62 1383.4C2331.71 1382.85 2330.58 1382.58 2329.23 1382.58ZM2340.16 1449.45C2340.48 1449.58 2340.81 1449.75 2341.18 1449.96C2341.57 1450.17 2341.99 1450.36 2342.43 1450.55C2342.9 1450.76 2343.41 1450.92 2343.95 1451.05C2344.5 1451.18 2345.11 1451.25 2345.79 1451.25C2346.62 1451.25 2347.4 1451.02 2348.13 1450.55C2348.86 1450.08 2349.53 1449.49 2350.12 1448.79C2350.72 1448.09 2351.26 1447.32 2351.73 1446.48C2352.19 1445.65 2352.59 1444.87 2352.9 1444.14L2355.59 1438.12L2335.16 1400H2344.19L2359.58 1428.91L2372.19 1400H2376.45L2356.02 1447.03C2355.16 1448.98 2354.17 1450.68 2353.05 1452.11C2351.96 1453.54 2350.79 1454.73 2349.54 1455.66C2348.29 1456.6 2347 1457.29 2345.67 1457.73C2344.34 1458.2 2343.05 1458.44 2341.8 1458.44C2340.87 1458.44 2339.96 1458.29 2339.07 1458.01C2338.18 1457.72 2337.44 1457.34 2336.84 1456.88L2340.16 1449.45ZM2402.39 1400L2416.53 1430.27L2430.09 1400H2433.68L2415.67 1440.43H2412.94L2394.07 1400H2402.39ZM2441.96 1401.52L2447.55 1399.26H2449.85V1440H2441.96V1401.52ZM2441.34 1384.69C2441.34 1384.06 2441.45 1383.48 2441.69 1382.93C2441.92 1382.38 2442.25 1381.9 2442.66 1381.48C2443.08 1381.07 2443.56 1380.74 2444.11 1380.51C2444.66 1380.27 2445.24 1380.16 2445.87 1380.16C2446.49 1380.16 2447.08 1380.27 2447.62 1380.51C2448.17 1380.74 2448.65 1381.07 2449.07 1381.48C2449.49 1381.9 2449.81 1382.38 2450.05 1382.93C2450.28 1383.48 2450.4 1384.06 2450.4 1384.69C2450.4 1385.31 2450.28 1385.9 2450.05 1386.45C2449.81 1386.99 2449.49 1387.47 2449.07 1387.89C2448.65 1388.31 2448.17 1388.63 2447.62 1388.87C2447.08 1389.1 2446.49 1389.22 2445.87 1389.22C2445.24 1389.22 2444.66 1389.1 2444.11 1388.87C2443.56 1388.63 2443.08 1388.31 2442.66 1387.89C2442.25 1387.47 2441.92 1386.99 2441.69 1386.45C2441.45 1385.9 2441.34 1385.31 2441.34 1384.69ZM2481.37 1440.86C2478.67 1440.86 2476.11 1440.35 2473.72 1439.34C2471.35 1438.32 2469.28 1436.94 2467.51 1435.2C2465.74 1433.45 2464.33 1431.41 2463.29 1429.06C2462.27 1426.69 2461.77 1424.18 2461.77 1421.52C2461.77 1418.32 2462.23 1415.36 2463.17 1412.66C2464.11 1409.92 2465.44 1407.57 2467.16 1405.59C2468.87 1403.61 2470.93 1402.06 2473.33 1400.94C2475.75 1399.82 2478.44 1399.26 2481.41 1399.26C2484.02 1399.26 2486.41 1399.73 2488.6 1400.66C2490.79 1401.58 2492.66 1402.81 2494.23 1404.38C2495.81 1405.91 2497.04 1407.7 2497.9 1409.73C2498.78 1411.76 2499.23 1413.88 2499.23 1416.09H2469.42C2469.42 1418.78 2469.76 1421.26 2470.44 1423.55C2471.14 1425.85 2472.12 1427.83 2473.37 1429.49C2474.62 1431.16 2476.1 1432.46 2477.82 1433.4C2479.54 1434.34 2481.43 1434.8 2483.48 1434.8C2485.2 1434.8 2486.86 1434.53 2488.44 1433.98C2490.03 1433.41 2491.47 1432.67 2492.74 1431.76C2494.04 1430.85 2495.15 1429.8 2496.06 1428.63C2496.97 1427.46 2497.61 1426.25 2497.98 1425L2500.28 1426.02C2499.71 1428.07 2498.78 1430 2497.51 1431.8C2496.23 1433.59 2494.73 1435.17 2493.02 1436.52C2491.32 1437.85 2489.47 1438.91 2487.47 1439.69C2485.46 1440.47 2483.43 1440.86 2481.37 1440.86ZM2489.27 1412.89C2489.27 1411.38 2488.99 1409.97 2488.44 1408.67C2487.92 1407.37 2487.19 1406.25 2486.26 1405.31C2485.32 1404.35 2484.23 1403.59 2482.98 1403.05C2481.73 1402.5 2480.39 1402.23 2478.95 1402.23C2477.75 1402.23 2476.61 1402.5 2475.52 1403.05C2474.42 1403.57 2473.44 1404.31 2472.59 1405.27C2471.73 1406.21 2471.01 1407.33 2470.44 1408.63C2469.89 1409.93 2469.56 1411.34 2469.46 1412.85L2489.27 1412.89ZM2513.09 1400L2525.75 1429.22L2538.29 1400L2550.91 1429.22L2562.08 1400H2565.91L2549.58 1440.43H2546.88L2535.71 1414.3L2524.5 1440.43H2522.04L2504.54 1400H2513.09ZM2614.81 1440C2613.77 1439.48 2612.89 1438.75 2612.16 1437.81C2611.45 1436.85 2611.1 1435.76 2611.1 1434.53C2610.16 1435.23 2609.24 1435.96 2608.33 1436.72C2607.44 1437.47 2606.47 1438.16 2605.4 1438.79C2604.36 1439.39 2603.18 1439.88 2601.88 1440.27C2600.61 1440.66 2599.12 1440.86 2597.43 1440.86C2595.87 1440.86 2594.45 1440.6 2593.17 1440.08C2591.92 1439.58 2590.85 1438.89 2589.97 1438.01C2589.11 1437.12 2588.43 1436.07 2587.94 1434.84C2587.47 1433.62 2587.23 1432.3 2587.23 1430.9C2587.23 1429.18 2587.57 1427.63 2588.25 1426.25C2588.93 1424.87 2589.85 1423.65 2591.02 1422.58C2592.22 1421.48 2593.6 1420.52 2595.16 1419.69C2596.73 1418.83 2598.39 1418.07 2600.16 1417.42C2601.93 1416.74 2603.76 1416.15 2605.63 1415.62C2607.51 1415.1 2609.33 1414.62 2611.1 1414.18V1411.68C2611.1 1409.86 2610.97 1408.32 2610.71 1407.07C2610.45 1405.82 2610.05 1404.82 2609.5 1404.06C2608.95 1403.28 2608.25 1402.73 2607.39 1402.42C2606.56 1402.08 2605.55 1401.91 2604.38 1401.91C2603.26 1401.91 2602.23 1402.14 2601.3 1402.58C2600.36 1403.02 2599.53 1403.62 2598.8 1404.38C2598.09 1405.1 2597.51 1405.98 2597.04 1406.99C2596.6 1407.98 2596.3 1409.04 2596.14 1410.16H2588.87C2589.08 1408.44 2589.67 1406.9 2590.63 1405.55C2591.62 1404.19 2592.86 1403.06 2594.34 1402.15C2595.83 1401.21 2597.51 1400.49 2599.38 1400C2601.28 1399.51 2603.25 1399.26 2605.28 1399.26C2607.89 1399.26 2610.07 1399.52 2611.84 1400.04C2613.61 1400.53 2615.03 1401.24 2616.1 1402.15C2617.17 1403.06 2617.92 1404.18 2618.37 1405.51C2618.84 1406.81 2619.07 1408.26 2619.07 1409.84V1434.53C2619.07 1435.76 2619.42 1436.85 2620.12 1437.81C2620.85 1438.75 2621.74 1439.48 2622.78 1440H2614.81ZM2611.1 1416.72C2609.96 1417.08 2608.77 1417.5 2607.55 1417.97C2606.32 1418.44 2605.12 1418.97 2603.95 1419.57C2602.78 1420.14 2601.66 1420.77 2600.59 1421.45C2599.53 1422.12 2598.59 1422.85 2597.78 1423.63C2596.97 1424.41 2596.34 1425.23 2595.87 1426.09C2595.4 1426.95 2595.16 1427.85 2595.16 1428.79C2595.16 1429.78 2595.35 1430.72 2595.71 1431.6C2596.08 1432.46 2596.56 1433.23 2597.16 1433.91C2597.75 1434.56 2598.44 1435.08 2599.23 1435.47C2600.01 1435.83 2600.81 1436.02 2601.65 1436.02C2602.53 1436.02 2603.38 1435.9 2604.19 1435.66C2604.99 1435.43 2605.78 1435.12 2606.53 1434.73C2607.29 1434.31 2608.04 1433.84 2608.8 1433.32C2609.55 1432.8 2610.32 1432.24 2611.1 1431.64V1416.72ZM2637.66 1399.26H2639.93V1407.34C2642.35 1404.64 2644.86 1402.62 2647.47 1401.29C2650.07 1399.93 2652.72 1399.26 2655.4 1399.26C2656.8 1399.26 2658.11 1399.57 2659.3 1400.2C2660.53 1400.82 2661.6 1401.68 2662.51 1402.77C2663.42 1403.87 2664.14 1405.16 2664.66 1406.64C2665.18 1408.1 2665.44 1409.66 2665.44 1411.33V1440H2657.51V1412.7C2657.51 1411.37 2657.35 1410.21 2657.04 1409.22C2656.73 1408.2 2656.28 1407.36 2655.71 1406.68C2655.14 1406 2654.46 1405.49 2653.68 1405.16C2652.92 1404.79 2652.08 1404.61 2651.14 1404.61C2650.31 1404.61 2649.42 1404.75 2648.48 1405.04C2647.55 1405.33 2646.58 1405.73 2645.59 1406.25C2644.63 1406.74 2643.67 1407.34 2642.7 1408.05C2641.74 1408.75 2640.81 1409.53 2639.93 1410.39V1440H2631.96V1401.48L2637.66 1399.26ZM2680.16 1401.52L2685.75 1399.26H2688.05V1440H2680.16V1401.52ZM2679.54 1384.69C2679.54 1384.06 2679.66 1383.48 2679.89 1382.93C2680.12 1382.38 2680.45 1381.9 2680.87 1381.48C2681.28 1381.07 2681.77 1380.74 2682.31 1380.51C2682.86 1380.27 2683.44 1380.16 2684.07 1380.16C2684.69 1380.16 2685.28 1380.27 2685.83 1380.51C2686.37 1380.74 2686.86 1381.07 2687.27 1381.48C2687.69 1381.9 2688.02 1382.38 2688.25 1382.93C2688.48 1383.48 2688.6 1384.06 2688.6 1384.69C2688.6 1385.31 2688.48 1385.9 2688.25 1386.45C2688.02 1386.99 2687.69 1387.47 2687.27 1387.89C2686.86 1388.31 2686.37 1388.63 2685.83 1388.87C2685.28 1389.1 2684.69 1389.22 2684.07 1389.22C2683.44 1389.22 2682.86 1389.1 2682.31 1388.87C2681.77 1388.63 2681.28 1388.31 2680.87 1387.89C2680.45 1387.47 2680.12 1386.99 2679.89 1386.45C2679.66 1385.9 2679.54 1385.31 2679.54 1384.69ZM2708.37 1399.26H2710.63V1407.54C2711.65 1406.45 2712.79 1405.4 2714.07 1404.41C2715.35 1403.4 2716.66 1402.51 2718.02 1401.76C2719.37 1400.98 2720.72 1400.36 2722.08 1399.92C2723.43 1399.48 2724.72 1399.26 2725.94 1399.26C2727.12 1399.26 2728.3 1399.47 2729.5 1399.88C2730.72 1400.3 2731.84 1400.89 2732.86 1401.64C2733.9 1402.4 2734.79 1403.29 2735.52 1404.34C2736.27 1405.35 2736.77 1406.47 2737 1407.7C2737.65 1406.52 2738.55 1405.43 2739.69 1404.41C2740.87 1403.37 2742.16 1402.47 2743.56 1401.72C2744.97 1400.96 2746.45 1400.36 2748.02 1399.92C2749.6 1399.48 2751.15 1399.26 2752.66 1399.26C2754.17 1399.26 2755.58 1399.6 2756.88 1400.27C2758.21 1400.92 2759.37 1401.82 2760.36 1402.97C2761.35 1404.09 2762.13 1405.42 2762.7 1406.95C2763.28 1408.46 2763.56 1410.08 2763.56 1411.8V1440H2755.63V1412.89C2755.63 1411.77 2755.44 1410.72 2755.05 1409.73C2754.68 1408.71 2754.17 1407.83 2753.52 1407.07C2752.87 1406.32 2752.1 1405.72 2751.22 1405.27C2750.36 1404.83 2749.45 1404.61 2748.48 1404.61C2747.39 1404.61 2746.27 1404.77 2745.12 1405.08C2744 1405.36 2742.94 1405.77 2741.92 1406.29C2740.91 1406.81 2739.98 1407.42 2739.15 1408.12C2738.31 1408.8 2737.65 1409.53 2737.16 1410.31V1440H2729.23V1412.89C2729.23 1411.77 2729.03 1410.72 2728.64 1409.73C2728.25 1408.71 2727.73 1407.83 2727.08 1407.07C2726.43 1406.32 2725.66 1405.72 2724.77 1405.27C2723.89 1404.83 2722.96 1404.61 2722 1404.61C2720.98 1404.61 2719.93 1404.77 2718.84 1405.08C2717.77 1405.39 2716.71 1405.81 2715.67 1406.33C2714.66 1406.85 2713.71 1407.46 2712.82 1408.16C2711.93 1408.84 2711.21 1409.56 2710.63 1410.31V1440H2702.66V1401.48L2708.37 1399.26ZM2802.55 1440C2801.5 1439.48 2800.62 1438.75 2799.89 1437.81C2799.19 1436.85 2798.84 1435.76 2798.84 1434.53C2797.9 1435.23 2796.97 1435.96 2796.06 1436.72C2795.18 1437.47 2794.2 1438.16 2793.13 1438.79C2792.09 1439.39 2790.92 1439.88 2789.62 1440.27C2788.34 1440.66 2786.86 1440.86 2785.16 1440.86C2783.6 1440.86 2782.18 1440.6 2780.91 1440.08C2779.66 1439.58 2778.59 1438.89 2777.7 1438.01C2776.84 1437.12 2776.17 1436.07 2775.67 1434.84C2775.2 1433.62 2774.97 1432.3 2774.97 1430.9C2774.97 1429.18 2775.31 1427.63 2775.98 1426.25C2776.66 1424.87 2777.59 1423.65 2778.76 1422.58C2779.96 1421.48 2781.34 1420.52 2782.9 1419.69C2784.46 1418.83 2786.13 1418.07 2787.9 1417.42C2789.67 1416.74 2791.49 1416.15 2793.37 1415.62C2795.24 1415.1 2797.06 1414.62 2798.84 1414.18V1411.68C2798.84 1409.86 2798.71 1408.32 2798.44 1407.07C2798.18 1405.82 2797.78 1404.82 2797.23 1404.06C2796.69 1403.28 2795.98 1402.73 2795.12 1402.42C2794.29 1402.08 2793.29 1401.91 2792.12 1401.91C2791 1401.91 2789.97 1402.14 2789.03 1402.58C2788.09 1403.02 2787.26 1403.62 2786.53 1404.38C2785.83 1405.1 2785.24 1405.98 2784.77 1406.99C2784.33 1407.98 2784.03 1409.04 2783.87 1410.16H2776.61C2776.82 1408.44 2777.4 1406.9 2778.37 1405.55C2779.36 1404.19 2780.59 1403.06 2782.08 1402.15C2783.56 1401.21 2785.24 1400.49 2787.12 1400C2789.02 1399.51 2790.98 1399.26 2793.02 1399.26C2795.62 1399.26 2797.81 1399.52 2799.58 1400.04C2801.35 1400.53 2802.77 1401.24 2803.84 1402.15C2804.9 1403.06 2805.66 1404.18 2806.1 1405.51C2806.57 1406.81 2806.8 1408.26 2806.8 1409.84V1434.53C2806.8 1435.76 2807.16 1436.85 2807.86 1437.81C2808.59 1438.75 2809.47 1439.48 2810.52 1440H2802.55ZM2798.84 1416.72C2797.69 1417.08 2796.5 1417.5 2795.28 1417.97C2794.06 1418.44 2792.86 1418.97 2791.69 1419.57C2790.52 1420.14 2789.4 1420.77 2788.33 1421.45C2787.26 1422.12 2786.32 1422.85 2785.52 1423.63C2784.71 1424.41 2784.07 1425.23 2783.6 1426.09C2783.13 1426.95 2782.9 1427.85 2782.9 1428.79C2782.9 1429.78 2783.08 1430.72 2783.44 1431.6C2783.81 1432.46 2784.29 1433.23 2784.89 1433.91C2785.49 1434.56 2786.18 1435.08 2786.96 1435.47C2787.74 1435.83 2788.55 1436.02 2789.38 1436.02C2790.27 1436.02 2791.11 1435.9 2791.92 1435.66C2792.73 1435.43 2793.51 1435.12 2794.27 1434.73C2795.02 1434.31 2795.78 1433.84 2796.53 1433.32C2797.29 1432.8 2798.05 1432.24 2798.84 1431.64V1416.72ZM2828.09 1386.41H2830.36V1400H2839.27V1403.4H2830.36V1431.56C2830.36 1432.16 2830.46 1432.72 2830.67 1433.24C2830.91 1433.76 2831.21 1434.22 2831.57 1434.61C2831.96 1435 2832.42 1435.31 2832.94 1435.55C2833.46 1435.76 2834.03 1435.86 2834.66 1435.86C2835.54 1435.86 2836.35 1435.64 2837.08 1435.2C2837.81 1434.75 2838.44 1434.21 2838.99 1433.55L2840.98 1434.88C2839.89 1436.73 2838.47 1438.19 2836.73 1439.26C2834.98 1440.33 2832.82 1440.86 2830.24 1440.86C2828.91 1440.86 2827.75 1440.62 2826.77 1440.16C2825.78 1439.71 2824.96 1439.09 2824.3 1438.28C2823.68 1437.45 2823.21 1436.47 2822.9 1435.35C2822.59 1434.21 2822.43 1432.94 2822.43 1431.56V1403.4H2815.48V1401.91L2822.43 1400V1388.63L2828.09 1386.41ZM2852.12 1401.52L2857.7 1399.26H2860.01V1440H2852.12V1401.52ZM2851.49 1384.69C2851.49 1384.06 2851.61 1383.48 2851.84 1382.93C2852.08 1382.38 2852.4 1381.9 2852.82 1381.48C2853.24 1381.07 2853.72 1380.74 2854.27 1380.51C2854.81 1380.27 2855.4 1380.16 2856.02 1380.16C2856.65 1380.16 2857.23 1380.27 2857.78 1380.51C2858.33 1380.74 2858.81 1381.07 2859.23 1381.48C2859.64 1381.9 2859.97 1382.38 2860.2 1382.93C2860.44 1383.48 2860.55 1384.06 2860.55 1384.69C2860.55 1385.31 2860.44 1385.9 2860.2 1386.45C2859.97 1386.99 2859.64 1387.47 2859.23 1387.89C2858.81 1388.31 2858.33 1388.63 2857.78 1388.87C2857.23 1389.1 2856.65 1389.22 2856.02 1389.22C2855.4 1389.22 2854.81 1389.1 2854.27 1388.87C2853.72 1388.63 2853.24 1388.31 2852.82 1387.89C2852.4 1387.47 2852.08 1386.99 2851.84 1386.45C2851.61 1385.9 2851.49 1385.31 2851.49 1384.69ZM2893.05 1440.86C2889.98 1440.86 2887.16 1440.33 2884.58 1439.26C2882 1438.19 2879.77 1436.74 2877.9 1434.92C2876.02 1433.07 2874.55 1430.92 2873.48 1428.48C2872.44 1426 2871.92 1423.36 2871.92 1420.55C2871.92 1417.6 2872.44 1414.84 2873.48 1412.27C2874.55 1409.66 2876.02 1407.4 2877.9 1405.47C2879.77 1403.54 2882 1402.03 2884.58 1400.94C2887.16 1399.82 2889.98 1399.26 2893.05 1399.26C2896.1 1399.26 2898.9 1399.77 2901.45 1400.78C2904.03 1401.8 2906.26 1403.19 2908.13 1404.96C2910.01 1406.73 2911.47 1408.82 2912.51 1411.21C2913.58 1413.58 2914.11 1416.13 2914.11 1418.87C2914.11 1421.89 2913.58 1424.74 2912.51 1427.42C2911.47 1430.08 2910.01 1432.41 2908.13 1434.41C2906.26 1436.39 2904.03 1437.97 2901.45 1439.14C2898.9 1440.29 2896.1 1440.86 2893.05 1440.86ZM2894.58 1437.93C2896.14 1437.93 2897.57 1437.53 2898.87 1436.72C2900.18 1435.91 2901.3 1434.83 2902.23 1433.48C2903.17 1432.1 2903.9 1430.51 2904.42 1428.71C2904.94 1426.91 2905.2 1425.01 2905.2 1423.01C2905.2 1420.12 2904.96 1417.41 2904.46 1414.88C2903.97 1412.36 2903.16 1410.16 2902.04 1408.28C2900.92 1406.41 2899.46 1404.93 2897.66 1403.87C2895.87 1402.77 2893.68 1402.23 2891.1 1402.23C2889.77 1402.23 2888.48 1402.62 2887.23 1403.4C2885.98 1404.15 2884.88 1405.2 2883.91 1406.52C2882.98 1407.85 2882.22 1409.41 2881.65 1411.21C2881.08 1412.98 2880.79 1414.87 2880.79 1416.88C2880.79 1419.79 2881.09 1422.53 2881.69 1425.08C2882.31 1427.63 2883.21 1429.86 2884.38 1431.76C2885.58 1433.66 2887.03 1435.17 2888.72 1436.29C2890.44 1437.38 2892.39 1437.93 2894.58 1437.93ZM2931.1 1399.26H2933.37V1407.34C2935.79 1404.64 2938.3 1402.62 2940.91 1401.29C2943.51 1399.93 2946.15 1399.26 2948.84 1399.26C2950.24 1399.26 2951.54 1399.57 2952.74 1400.2C2953.97 1400.82 2955.03 1401.68 2955.94 1402.77C2956.86 1403.87 2957.57 1405.16 2958.09 1406.64C2958.61 1408.1 2958.87 1409.66 2958.87 1411.33V1440H2950.94V1412.7C2950.94 1411.37 2950.79 1410.21 2950.48 1409.22C2950.16 1408.2 2949.72 1407.36 2949.15 1406.68C2948.58 1406 2947.9 1405.49 2947.12 1405.16C2946.36 1404.79 2945.52 1404.61 2944.58 1404.61C2943.74 1404.61 2942.86 1404.75 2941.92 1405.04C2940.98 1405.33 2940.02 1405.73 2939.03 1406.25C2938.07 1406.74 2937.1 1407.34 2936.14 1408.05C2935.18 1408.75 2934.25 1409.53 2933.37 1410.39V1440H2925.4V1401.48L2931.1 1399.26ZM2985.05 1438.09C2986.11 1438.09 2987.1 1437.93 2988.02 1437.62C2988.93 1437.28 2989.71 1436.84 2990.36 1436.29C2991.04 1435.74 2991.56 1435.12 2991.92 1434.41C2992.29 1433.68 2992.47 1432.94 2992.47 1432.19C2992.47 1430.96 2992.16 1429.9 2991.53 1428.98C2990.93 1428.07 2990.12 1427.27 2989.11 1426.56C2988.12 1425.83 2986.99 1425.17 2985.71 1424.57C2984.43 1423.97 2983.13 1423.36 2981.8 1422.73C2980.48 1422.08 2979.17 1421.41 2977.9 1420.7C2976.62 1419.97 2975.48 1419.13 2974.46 1418.16C2973.47 1417.2 2972.66 1416.09 2972.04 1414.84C2971.44 1413.57 2971.14 1412.08 2971.14 1410.39C2971.14 1408.8 2971.48 1407.33 2972.16 1405.98C2972.83 1404.6 2973.77 1403.41 2974.97 1402.42C2976.19 1401.43 2977.64 1400.66 2979.3 1400.12C2980.97 1399.54 2982.79 1399.26 2984.77 1399.26C2986.1 1399.26 2987.34 1399.35 2988.48 1399.53C2989.63 1399.71 2990.75 1400.07 2991.84 1400.59C2992.96 1401.11 2994.07 1401.86 2995.16 1402.85C2996.26 1403.82 2997.42 1405.08 2998.64 1406.64L2995.71 1409.26C2994.2 1406.78 2992.51 1404.95 2990.63 1403.75C2988.78 1402.53 2986.8 1401.91 2984.69 1401.91C2983.55 1401.91 2982.51 1402.06 2981.57 1402.34C2980.63 1402.6 2979.83 1402.98 2979.15 1403.48C2978.5 1403.95 2977.98 1404.51 2977.59 1405.16C2977.22 1405.81 2977.04 1406.5 2977.04 1407.23C2977.04 1408.42 2977.36 1409.47 2978.02 1410.35C2978.69 1411.24 2979.58 1412.04 2980.67 1412.77C2981.77 1413.48 2983 1414.13 2984.38 1414.73C2985.79 1415.33 2987.21 1415.94 2988.64 1416.56C2990.1 1417.19 2991.52 1417.86 2992.9 1418.59C2994.3 1419.32 2995.55 1420.17 2996.65 1421.13C2997.74 1422.07 2998.61 1423.16 2999.27 1424.41C2999.94 1425.66 3000.28 1427.12 3000.28 1428.79C3000.28 1430.48 2999.97 1432.07 2999.34 1433.55C2998.72 1435.01 2997.77 1436.29 2996.49 1437.38C2995.24 1438.45 2993.67 1439.3 2991.77 1439.92C2989.86 1440.55 2987.62 1440.86 2985.05 1440.86C2983.87 1440.86 2982.66 1440.77 2981.41 1440.59C2980.19 1440.4 2978.95 1440.05 2977.7 1439.53C2976.45 1438.98 2975.2 1438.23 2973.95 1437.27C2972.7 1436.3 2971.48 1435.04 2970.28 1433.48L2973.52 1430.55C2974.49 1431.9 2975.41 1433.06 2976.3 1434.02C2977.18 1434.96 2978.08 1435.74 2978.99 1436.37C2979.93 1436.97 2980.88 1437.41 2981.84 1437.7C2982.83 1437.96 2983.9 1438.09 2985.05 1438.09Z" fill="white"/>
<defs>
<clipPath id="clip0">
<rect width="512" height="512" fill="white" transform="translate(699 744)"/>
</clipPath>
</defs>
</svg>
